<?xml version="1.0" encoding="UTF-8"?>
<svg version="1.1" xmlns="http://www.w3.org/2000/svg" width="500" height="500">
<path d="M0 0 C23.57506682 -0.16043524 23.57506682 -0.16043524 33.76171875 -0.1953125 C40.66467867 -0.21906054 47.56742287 -0.24689922 54.47021484 -0.30175781 C60.04645497 -0.34578757 65.6224632 -0.36925532 71.19886398 -0.37950897 C73.30752581 -0.38679933 75.41617752 -0.40102902 77.52473831 -0.42292023 C91.54458245 -0.56244986 106.54476133 -0.49872302 120 4 C120.33 4.66 120.66 5.32 121 6 C122.78042656 6.69437605 122.78042656 6.69437605 124.9375 7.25 C141.25011913 12.46384346 154.11745055 26.09356362 162.35546875 40.69140625 C165.40057248 46.81777885 169 54.10735043 169 61 C175.6 61 182.2 61 189 61 C189 69.91 189 78.82 189 88 C183.72 88 178.44 88 173 88 C173 94.93 173 101.86 173 109 C178.28 109.33 183.56 109.66 189 110 C189 118.91 189 127.82 189 137 C181.74 137.33 174.48 137.66 167 138 C166.360625 139.69125 165.72125 141.3825 165.0625 143.125 C155.86611631 165.05682516 139.01918625 181.71631972 117.19775391 191.13183594 C101.29784475 197.41267097 84.39011716 199.15422284 67.43359375 199.04296875 C66.52057495 199.03986694 65.60755615 199.03676514 64.66687012 199.03356934 C62.44454602 199.02556751 60.22229075 199.01432831 58 199 C58.00444122 200.05219223 58.00888245 201.10438446 58.01345825 202.1884613 C58.05425962 212.1754141 58.08410568 222.16234965 58.10362434 232.14936733 C58.11399686 237.28198701 58.12803451 242.41453862 58.15087891 247.54711914 C58.17284305 252.51383685 58.18461753 257.48048969 58.18975449 262.44725227 C58.19340844 264.3283598 58.20054153 266.20946436 58.21146011 268.09054375 C58.29542524 283.17633878 57.81784398 298.19693116 53.6875 312.8125 C53.4694873 313.60527344 53.25147461 314.39804687 53.02685547 315.21484375 C47.09890948 336.1480362 36.10340138 352.50369654 17.19140625 363.65625 C4.89460363 370.19674746 -8.18675526 373.62188046 -22 375 C-23.09054688 375.11085938 -24.18109375 375.22171875 -25.3046875 375.3359375 C-56.93485971 378.14245158 -90.48195227 373.441788 -115.67578125 352.80859375 C-124.63342412 344.99274451 -133.39872841 336.16783206 -138 325 C-138.06527123 319.9006849 -134.67574642 316.87971113 -131.4375 313.3125 C-130.3320513 312.06102711 -129.22788682 310.80841868 -128.125 309.5546875 C-127.31675781 308.64154785 -127.31675781 308.64154785 -126.4921875 307.70996094 C-124.56952165 305.5066966 -122.7456359 303.23533937 -120.9375 300.9375 C-120.01130859 299.77927734 -120.01130859 299.77927734 -119.06640625 298.59765625 C-117.93435178 297.17456321 -116.80531954 295.7489704 -115.69091797 294.31201172 C-114.26918225 292.48560926 -112.82399026 290.67982258 -111.375 288.875 C-110.93148193 288.29355225 -110.48796387 287.71210449 -110.03100586 287.11303711 C-107.86243026 284.45034552 -106.31835817 283.09600618 -103.0078125 282.09765625 C-98.17214304 283.54835709 -96.81141851 287.28937327 -94.5 291.5625 C-86.75744416 305.40761787 -75.86131597 317.03075639 -60.03735352 321.56201172 C-47.63770919 324.60725244 -32.51257927 324.98583492 -21 319 C-9.85436397 312.24765915 -6.11459869 303.30571834 -3 291 C-2.19770548 286.83854048 -1.86695121 282.89550317 -1.84178162 278.65982056 C-1.8319928 277.40627777 -1.82220398 276.15273499 -1.81211853 274.86120605 C-1.80621555 273.4851078 -1.80040502 272.10900915 -1.79467773 270.73291016 C-1.78509048 269.27391284 -1.77507991 267.81491826 -1.76467896 266.35592651 C-1.73771558 262.40601207 -1.71665981 258.45608579 -1.69667697 254.5061307 C-1.67476438 250.37413167 -1.64740156 246.2421688 -1.62062073 242.11019897 C-1.570765 234.29057302 -1.52579984 226.47092693 -1.48259836 218.65126169 C-1.43316504 209.7467941 -1.37826956 200.84236281 -1.32291877 191.93793035 C-1.20920806 173.62532061 -1.10234538 155.3126766 -1 137 C-1.60062256 137.00523682 -2.20124512 137.01047363 -2.82006836 137.01586914 C-5.52586838 137.03658014 -8.23165177 137.04964125 -10.9375 137.0625 C-11.88302734 137.07087891 -12.82855469 137.07925781 -13.80273438 137.08789062 C-14.70185547 137.09111328 -15.60097656 137.09433594 -16.52734375 137.09765625 C-17.35999756 137.10289307 -18.19265137 137.10812988 -19.05053711 137.11352539 C-21 137 -21 137 -22 136 C-22.09959621 134.15840977 -22.13080411 132.31303033 -22.1328125 130.46875 C-22.13410156 129.34855469 -22.13539063 128.22835937 -22.13671875 127.07421875 C-22.13285156 125.89472656 -22.12898438 124.71523437 -22.125 123.5 C-22.12886719 122.32050781 -22.13273437 121.14101562 -22.13671875 119.92578125 C-22.13542969 118.80558594 -22.13414062 117.68539062 -22.1328125 116.53125 C-22.13168457 115.49548828 -22.13055664 114.45972656 -22.12939453 113.39257812 C-22 111 -22 111 -21 110 C-19.5112814 109.91330568 -18.018555 109.89296506 -16.52734375 109.90234375 C-15.71773193 109.90484131 -14.90812012 109.90733887 -14.07397461 109.90991211 C-13.03893799 109.91901611 -12.00390137 109.92812012 -10.9375 109.9375 C-7.658125 109.958125 -4.37875 109.97875 -1 110 C-1 102.74 -1 95.48 -1 88 C-7.5370285 88.03958259 -7.5370285 88.03958259 -14.07397461 88.09008789 C-15.28839233 88.09383423 -15.28839233 88.09383423 -16.52734375 88.09765625 C-17.77632446 88.10551147 -17.77632446 88.10551147 -19.05053711 88.11352539 C-21 88 -21 88 -22 87 C-22.09959621 85.15840977 -22.13080411 83.31303033 -22.1328125 81.46875 C-22.13410156 80.34855469 -22.13539063 79.22835937 -22.13671875 78.07421875 C-22.13285156 76.89472656 -22.12898438 75.71523437 -22.125 74.5 C-22.12886719 73.32050781 -22.13273437 72.14101562 -22.13671875 70.92578125 C-22.13542969 69.80558594 -22.13414062 68.68539062 -22.1328125 67.53125 C-22.13168457 66.49548828 -22.13055664 65.45972656 -22.12939453 64.39257812 C-22 62 -22 62 -21 61 C-14.07 61 -7.14 61 0 61 C0 40.87 0 20.74 0 0 Z M58 46 C58 50.95 58 55.9 58 61 C74.5 61 91 61 108 61 C104.65033747 54.30067494 99.68436684 50.26321371 92.6875 47.5625 C81.58448312 44.45629885 69.4059949 45.70565174 58 46 Z M58 88 C58 95.26 58 102.52 58 110 C76.81 110 95.62 110 115 110 C115 102.74 115 95.48 115 88 C96.19 88 77.38 88 58 88 Z M58 137 C58 141.95 58 146.9 58 152 C74.46096741 152.50390717 89.08679486 151.91172051 102.5625 141.3125 C103.366875 140.549375 104.17125 139.78625 105 139 C105 138.34 105 137.68 105 137 C89.49 137 73.98 137 58 137 Z " fill="#000000" transform="translate(182,70)"/>
<path d="M0 0 C0.7113208 0.00161133 1.4226416 0.00322266 2.15551758 0.00488281 C10.21646377 0.19134761 17.6338181 2.47865103 23.375 8.375 C29.70543721 16.17698621 32.89247268 22.83805458 32.62890625 33.01171875 C31.54760802 43.07610997 27.21069363 50.39401436 19.5078125 56.83203125 C12.79101951 61.69124962 4.47797154 63.05407761 -3.6484375 61.97265625 C-13.32054955 59.91398253 -19.91142268 55.37400825 -25.625 47.375 C-26.7180043 45.07518153 -27.65426075 42.73092018 -28.625 40.375 C-67.36926332 40.2833609 -106.11351025 40.21291888 -144.8578601 40.17073868 C-149.43632748 40.16573611 -154.01479465 40.16055879 -158.59326172 40.15527344 C-159.50471749 40.1542242 -160.41617327 40.15317495 -161.35524891 40.15209392 C-176.09597111 40.13470853 -190.83663063 40.10318115 -205.5773157 40.06638882 C-220.71276549 40.0289274 -235.84818255 40.00675317 -250.98367679 39.99864602 C-260.31631989 39.99316902 -269.64878583 39.97589664 -278.98137437 39.94333413 C-285.38891469 39.92212198 -291.79636398 39.91581505 -298.20393683 39.92099449 C-301.89582836 39.9235459 -305.58741123 39.9197511 -309.27924728 39.8981781 C-313.29452774 39.87488822 -317.30916013 39.8831037 -321.32449341 39.89398193 C-323.04926901 39.87650488 -323.04926901 39.87650488 -324.80888855 39.85867476 C-337.21999386 39.94904322 -348.49609432 43.12445241 -358.625 50.375 C-359.25921875 50.82617188 -359.8934375 51.27734375 -360.546875 51.7421875 C-370.19889729 59.30151469 -376.59619559 71.38449953 -378.625 83.375 C-378.72714156 85.20708812 -378.78287851 87.0421196 -378.80200195 88.87695312 C-378.81483719 89.95577759 -378.82767242 91.03460205 -378.84089661 92.14611816 C-378.84828354 93.30446167 -378.85567047 94.46280518 -378.86328125 95.65625 C-378.871353 96.86132202 -378.87942474 98.06639404 -378.88774109 99.3079834 C-378.90156286 101.85993012 -378.91229353 104.41189518 -378.92016602 106.96386719 C-378.93165877 109.55702177 -378.9520672 112.15015321 -378.98168945 114.74316406 C-379.0246565 118.50602161 -379.04057826 122.26817663 -379.05078125 126.03125 C-379.06828934 127.17339966 -379.08579742 128.31554932 -379.10383606 129.49230957 C-379.06702909 143.38241095 -374.77682088 155.52906826 -365.37109375 165.84765625 C-354.49649925 176.30332576 -342.3052325 180.29694667 -327.5625 181.25 C-307.13583216 182.84359269 -291.84019845 189.49629158 -277.625 204.375 C-263.43194924 221.03947751 -259.95716109 240.02351513 -261.625 261.375 C-263.5550211 276.82803557 -270.65841883 289.51717831 -281.625 300.375 C-282.37394531 301.15746094 -283.12289062 301.93992187 -283.89453125 302.74609375 C-300.29425696 318.87385055 -321.52631834 319.90172688 -343.29370117 319.82104492 C-346.81552832 319.81249265 -350.33575231 319.84144811 -353.85742188 319.87304688 C-356.12760369 319.87465839 -358.39778833 319.87408231 -360.66796875 319.87109375 C-361.70471237 319.88232773 -362.74145599 319.89356171 -363.80961609 319.90513611 C-374.16417532 319.80751832 -382.49311689 317.30499873 -389.87109375 309.86328125 C-395.49633228 301.88270899 -396.16392843 294.94159551 -395.875 285.3125 C-395.85695313 284.16072266 -395.83890625 283.00894531 -395.8203125 281.82226562 C-395.77356322 279.00562166 -395.70805157 276.19076771 -395.625 273.375 C-396.98431641 273.21064453 -396.98431641 273.21064453 -398.37109375 273.04296875 C-405.34520542 271.61130837 -410.62648324 266.03956541 -414.625 260.375 C-419.40866058 252.94072093 -419.78922647 245.00449543 -418.625 236.375 C-415.85516251 227.88931412 -411.14791788 220.7512363 -403.484375 216.06640625 C-395.48890969 212.24076142 -386.14504797 211.96989688 -377.6171875 214.140625 C-368.95405006 217.39899908 -364.18494364 222.44524464 -359.625 230.375 C-355.97182904 238.43978572 -355.84312312 247.00196172 -358.625 255.375 C-362.49509972 263.41073432 -368.61972761 269.43935353 -376.625 273.375 C-377.615 273.375 -378.605 273.375 -379.625 273.375 C-379.57282273 276.75122928 -379.47767982 280.12495887 -379.375 283.5 C-379.36082031 284.45132812 -379.34664063 285.40265625 -379.33203125 286.3828125 C-379.1329042 292.11767168 -378.69544218 295.98172964 -374.625 300.375 C-369.87417724 303.05147929 -364.86419676 302.68093726 -359.56640625 302.67578125 C-358.58566635 302.68006638 -357.60492645 302.6843515 -356.59446716 302.68876648 C-354.5174944 302.6945036 -352.44050154 302.69501459 -350.36352539 302.69067383 C-347.2296173 302.68754209 -344.09668015 302.7108823 -340.96289062 302.73632812 C-321.37785183 302.7995491 -306.75447252 300.71045385 -291.953125 286.86328125 C-281.03113415 275.18994539 -278.15513159 262.05356673 -278.4140625 246.48046875 C-278.90479317 233.37917145 -284.45798899 221.95223591 -293.3515625 212.4453125 C-297.38802506 208.76949608 -301.86988448 206.02314476 -306.625 203.375 C-307.6975 202.776875 -308.77 202.17875 -309.875 201.5625 C-316.62963949 199.42353083 -323.69410923 198.91672947 -330.71386719 198.14550781 C-347.1248116 196.32888295 -347.1248116 196.32888295 -354.625 193.375 C-355.55441406 193.01019531 -356.48382813 192.64539063 -357.44140625 192.26953125 C-373.40079624 185.17415708 -386.24171249 170.51807515 -392.65234375 154.45703125 C-395.42851304 145.66025388 -395.94474783 137.64575207 -395.9609375 128.4609375 C-395.96738503 127.11967841 -395.97411475 125.77842065 -395.98110962 124.43716431 C-395.99302277 121.63499705 -395.9967969 118.83295247 -395.99560547 116.03076172 C-395.99540319 112.48419099 -396.02263657 108.93842973 -396.05714989 105.39204979 C-396.0796721 102.62233048 -396.08343532 99.85279776 -396.08238602 97.08299637 C-396.08581629 95.15409616 -396.10732053 93.22525417 -396.12948608 91.29647827 C-396.03077025 71.86690773 -388.88809545 55.78580818 -375.2421875 41.9609375 C-360.52971252 28.17087474 -344.56239059 23.03581784 -324.69161987 23.13449097 C-322.78607698 23.13192769 -322.78607698 23.13192769 -320.84203827 23.12931263 C-317.34149896 23.12486941 -313.84108351 23.13280077 -310.34055996 23.14286876 C-306.55610618 23.15154491 -302.77165881 23.14858016 -298.98719788 23.14706421 C-292.43883499 23.14601798 -285.8905121 23.1522671 -279.34215927 23.16353989 C-269.87446822 23.17982758 -260.40679643 23.18500623 -250.93909289 23.18751587 C-235.57657181 23.19188785 -220.21407202 23.20518345 -204.8515625 23.22412109 C-189.93261827 23.24249277 -175.01367983 23.25664297 -160.09472656 23.26513672 C-159.17437216 23.26566217 -158.25401777 23.26618761 -157.30577384 23.26672898 C-152.6884022 23.26933915 -148.07103052 23.27186654 -143.45365882 23.27435279 C-105.1774243 23.29506981 -66.90121356 23.33028179 -28.625 23.375 C-28.18607422 21.98474609 -28.18607422 21.98474609 -27.73828125 20.56640625 C-24.85517401 12.30149883 -18.92169691 6.87721724 -11.625 2.375 C-11.06167969 2.01535156 -10.49835938 1.65570312 -9.91796875 1.28515625 C-6.64922935 -0.01231612 -3.46717008 -0.00809614 0 0 Z M-10.9375 22.5625 C-13.26191227 26.43652045 -13.82354212 29.88000647 -13.625 34.375 C-11.80025555 39.74785867 -8.67697929 42.84901035 -3.625 45.375 C1.3861158 45.92478069 5.27196493 45.93654513 9.8125 43.625 C14.46984767 39.53562156 15.95688768 36.80422367 16.43359375 30.6171875 C16.32617991 26.50681806 14.80885264 23.78215857 11.90625 20.93359375 C7.67277089 17.29155658 5.10567587 16.01205542 -0.53125 16.09375 C-5.0036726 16.69452319 -7.78224982 19.57780388 -10.9375 22.5625 Z " fill="#03BC63" transform="translate(434.625,18.625)"/>
<path d="M0 0 C5.35811224 2.83873496 9.47899088 7.73684252 11.76953125 13.3125 C12.75752626 20.49886371 12.14263431 26.33493401 8.19140625 32.47265625 C4.77302442 36.89589208 1.18681968 39.06235652 -4.23046875 40.3125 C-9.01366427 40.7392535 -12.65679886 40.60379182 -17.04296875 38.625 C-19.03042298 37.92205807 -19.03042298 37.92205807 -21.23046875 38.3125 C-25.11870857 41.10853762 -28.35961689 44.41015733 -31.70898438 47.81835938 C-33.93798651 50.00730242 -36.34818924 51.93314656 -38.79296875 53.875 C-43.72739415 57.84118786 -48.38171355 62.03560851 -53.015625 66.34375 C-56.11564191 69.09932059 -57.67604053 69.43728124 -61.72293091 69.43275452 C-62.66806549 69.43412918 -63.61320007 69.43550385 -64.5869751 69.43692017 C-65.62706726 69.43332489 -66.66715942 69.42972961 -67.73876953 69.42602539 C-68.83146149 69.42617142 -69.92415344 69.42631744 -71.04995728 69.4264679 C-74.67525187 69.42576914 -78.30049559 69.41797842 -81.92578125 69.41015625 C-84.43399019 69.40829194 -86.9421995 69.4068681 -89.45040894 69.40586853 C-95.38606674 69.40243561 -101.32170812 69.39454764 -107.25735748 69.38451904 C-114.67677672 69.37225505 -122.09619822 69.36687629 -129.515625 69.36132812 C-142.75391559 69.3505926 -155.99219101 69.33370871 -169.23046875 69.3125 C-169.20964454 69.92114364 -169.18882032 70.52978727 -169.16736507 71.15687466 C-168.66107187 86.13819491 -168.25674494 101.11876248 -167.9585104 116.10547543 C-167.8119385 123.35404366 -167.63352037 130.59896602 -167.37524414 137.84448242 C-165.23525437 198.80727843 -165.23525437 198.80727843 -183.26516724 223.51152039 C-185.10490721 226.13354766 -186.42302493 228.68134402 -187.76733398 231.57763672 C-188.9203949 233.71247864 -188.9203949 233.71247864 -190.23046875 235.3125 C-193.48884853 236.1600227 -195.19561037 236.34348507 -198.41796875 236.12890625 C-199.19809326 236.11939438 -199.97821777 236.10988251 -200.78198242 236.1000824 C-203.26795833 236.06777055 -205.74647802 235.97789717 -208.23046875 235.875 C-218.87914249 234.80781493 -218.87914249 234.80781493 -228.38085938 238.03710938 C-229.64462071 240.10218901 -230.41679111 242.04304939 -231.23046875 244.3125 C-236.64215586 249.45360275 -241.41846669 250.72946513 -248.734375 250.56640625 C-254.45142038 249.98486016 -259.17689612 247.36607263 -263.23046875 243.3125 C-267.25194627 237.64826205 -268.15707233 232.1448059 -267.23046875 225.3125 C-265.56817754 219.14169235 -262.19645351 214.22682988 -256.66796875 211 C-250.97557305 208.40291071 -244.90378203 208.20428006 -238.92578125 210.0078125 C-232.58716987 212.8542078 -229.32127257 217.13089235 -226.23046875 223.3125 C-216.66046875 223.6425 -207.09046875 223.9725 -197.23046875 224.3125 C-196.24046875 221.3425 -196.24046875 221.3425 -195.23046875 218.3125 C-194.35335057 216.45605427 -193.43515014 214.6185575 -192.48046875 212.80078125 C-191.95453125 211.79595703 -191.42859375 210.79113281 -190.88671875 209.75585938 C-190.34015625 208.72267578 -189.79359375 207.68949219 -189.23046875 206.625 C-188.68390625 205.58021484 -188.13734375 204.53542969 -187.57421875 203.45898438 C-183.52929094 195.76073328 -183.52929094 195.76073328 -181.23046875 192.3125 C-180.91846111 189.76835181 -180.91846111 189.76835181 -180.95199585 186.86457825 C-180.94083237 185.73295761 -180.92966888 184.60133698 -180.91816711 183.4354248 C-180.91600693 182.19321167 -180.91384674 180.95099854 -180.91162109 179.67114258 C-180.90157547 178.36372604 -180.89152985 177.05630951 -180.88117981 175.70927429 C-180.85384703 172.12280196 -180.83872076 168.53636898 -180.82575178 164.9498198 C-180.81013553 161.2021522 -180.78334054 157.45456512 -180.75772095 153.70695496 C-180.71090642 146.60972527 -180.67417529 139.51248047 -180.64104807 132.41517514 C-180.60284554 124.33540308 -180.55343051 116.25571184 -180.50306392 108.17600787 C-180.39970431 91.5548966 -180.31045706 74.93374052 -180.23046875 58.3125 C-179.62915792 58.31840778 -179.02784708 58.32431557 -178.4083147 58.33040237 C-163.72452142 58.47049875 -149.04143289 58.54341625 -134.35700703 58.54309464 C-127.2552325 58.54453105 -120.1548577 58.56805694 -113.0534668 58.64501953 C-106.85809991 58.71210531 -100.66424218 58.73628418 -94.46854085 58.71059489 C-91.1920805 58.6984647 -87.91941387 58.71309126 -84.64327431 58.7664566 C-68.82993578 59.56224858 -68.82993578 59.56224858 -55.01757336 53.15740585 C-52.54911621 50.6875609 -50.42049184 48.03359349 -48.23046875 45.3125 C-46.35965604 43.60031448 -44.41745646 42.06703983 -42.41796875 40.5 C-41.53882813 39.77296875 -40.6596875 39.0459375 -39.75390625 38.296875 C-37.23046875 36.3125 -37.23046875 36.3125 -34.76953125 34.765625 C-32.28290506 33.07297419 -30.79433047 31.89820319 -29.23046875 29.3125 C-28.94107797 25.87598444 -28.97106547 22.66645948 -29.16210938 19.23510742 C-29.41139965 14.0030666 -28.87485331 10.91186608 -25.66015625 6.7890625 C-18.51329949 -0.59211743 -10.12173328 -3.11983373 0 0 Z M-16.54296875 13.5625 C-18.55425449 16.84015083 -18.71345115 18.52913788 -18.23046875 22.3125 C-17.30869548 25.53870643 -16.32889792 26.24762623 -13.48046875 28.125 C-9.73711628 29.4927634 -7.99942475 29.54150739 -4.23046875 28.3125 C-1.02537 25.62714699 0.57537805 23.73629014 1.14453125 19.5625 C0.63382073 15.13634215 -1.047484 13.35401876 -4.23046875 10.3125 C-9.31398036 8.27909536 -12.75926475 9.88105827 -16.54296875 13.5625 Z M-254.23046875 223.3125 C-256.56956182 226.8211396 -256.64337932 228.18339433 -256.23046875 232.3125 C-254.56284553 235.80656769 -253.49040853 237.13920681 -250.23046875 239.3125 C-246.01868632 239.78047583 -243.94447761 239.77815795 -240.35546875 237.4375 C-237.64314485 234.7251761 -237.29132782 233.85008847 -236.85546875 230 C-236.93003897 226.22775814 -236.93003897 226.22775814 -239.29296875 223.4375 C-244.57506992 219.61640554 -249.06358988 219.17899691 -254.23046875 223.3125 Z " fill="#04BC63" transform="translate(444.23046875,229.6875)"/>
<path d="M0 0 C4.52460109 3.44731512 8.80303354 7.53410061 10.625 13 C11.2873466 20.32924514 11.38164671 27.05087919 6.625 33 C2.84262617 36.60865311 -0.99360648 39.7240311 -6.375 40 C-7.468125 40.0825 -8.56125 40.165 -9.6875 40.25 C-16.8891692 39.76175124 -20.93489278 37.85831736 -25.875 32.5 C-29.375 28.46153846 -29.375 28.46153846 -29.375 25 C-60.065 25 -90.755 25 -122.375 25 C-122.42969361 42.4739055 -122.42969361 42.4739055 -122.41015625 59.94726562 C-122.38570742 67.0735696 -122.36997761 74.19915024 -122.40576172 81.32543945 C-122.43406756 87.0706002 -122.4236106 92.81449951 -122.38619995 98.55959511 C-122.37874963 100.75204517 -122.38530093 102.94458869 -122.40603638 105.13695335 C-122.43269326 108.20755182 -122.40970292 111.27404977 -122.375 114.34448242 C-122.39441147 115.25222916 -122.41382294 116.15997589 -122.43382263 117.0952301 C-122.37508362 119.63668679 -122.24951354 121.61071339 -121.375 124 C-119.48058097 125.71159939 -117.67653353 126.78679113 -115.37670898 127.88559437 C-111.70584138 129.92926583 -109.9329805 133.19826125 -108.375 137 C-106.57114648 143.48326176 -107.28448495 148.72534489 -110.0859375 154.8046875 C-113.3110146 160.29709153 -118.0925773 162.82547559 -124.015625 164.5546875 C-129.84329659 165.65461227 -134.58661145 164.73496441 -139.6875 161.75 C-144.92427863 158.11652934 -147.87321969 154.25741796 -149.375 148 C-150.10208245 141.69861877 -148.40120492 136.47687394 -145.375 131 C-142.52963446 127.72859042 -139.25276986 125.93888493 -135.375 124 C-135.045 87.7 -134.715 51.4 -134.375 14 C-99.725 14 -65.075 14 -29.375 14 C-29.045 12.35 -28.715 10.7 -28.375 9 C-21.90016828 -1.33442196 -11.37735348 -3.3710677 0 0 Z M-135.375 137 C-138.01760627 140.63358362 -138.49440078 142.21726156 -137.8125 146.6875 C-136.05215784 150.81563096 -136.05215784 150.81563096 -132.375 153 C-127.33598988 153.6398743 -125.50478413 153.86536657 -121.4375 150.75 C-118.94862989 147.66648601 -118.94862989 147.66648601 -118.375 144 C-119.68388037 139.61140113 -120.52091168 137.54034159 -124.4375 135.0625 C-129.13007347 133.36518619 -131.13914638 134.40662023 -135.375 137 Z " fill="#02BD62" transform="translate(421.375,295)"/>
<path d="M0 0 C4.93525121 2.76068269 7.58361728 6.91242145 9.26953125 12.26953125 C9.07028277 14.12469616 8.86136727 15.97883969 8.64453125 17.83203125 C8.65921588 21.05436873 8.65921588 21.05436873 10.26953125 24.26953125 C12.49922194 25.74379743 14.80235593 26.79269117 17.23066711 27.90818787 C24.03216536 31.08918121 29.97691984 34.18467628 32.7734375 41.46655273 C34.47650691 47.45409288 35.29345102 53.54484683 36.08203125 59.70703125 C36.42513325 61.82745028 36.77599773 63.94662843 37.13476562 66.06445312 C40.1784071 84.83949401 40.1784071 84.83949401 34.26953125 93.83203125 C33.35211449 95.26431259 32.43692498 96.69802193 31.5234375 98.1328125 C30.75217529 99.34251709 30.75217529 99.34251709 29.96533203 100.57666016 C26.6449148 105.84936417 23.43233562 111.18832191 20.20703125 116.51953125 C18.74762314 118.93112725 17.28799577 121.34259029 15.828125 123.75390625 C15.45879852 124.36415146 15.08947205 124.97439667 14.70895386 125.60313416 C12.36482377 129.47280471 10.00737001 133.33402875 7.63978577 137.18939209 C6.06021941 139.7618714 4.48438512 142.33662767 2.90872192 144.91149902 C2.15395528 146.14253152 1.3973645 147.37244761 0.6388855 148.60119629 C-0.41604532 150.31064837 -1.46404039 152.02437475 -2.51171875 153.73828125 C-3.11048828 154.71216797 -3.70925781 155.68605469 -4.32617188 156.68945312 C-5.56764785 158.97038464 -6.37454102 160.71240751 -6.73046875 163.26953125 C-5.98092095 165.62946384 -5.98092095 165.62946384 -4.79296875 168.01953125 C-2.37660302 173.79853181 -1.53245616 177.81861887 -3.61328125 183.8125 C-6.28812748 189.80876126 -9.04935342 193.00815023 -14.73046875 196.26953125 C-20.21352006 198.09721502 -26.6610051 198.43311878 -32.12109375 196.36328125 C-37.24754293 193.31089166 -41.67696449 189.55606128 -43.546875 183.72265625 C-45.15340601 176.40738298 -44.57340102 171.44037796 -41.54296875 164.58203125 C-38.97593594 161.30685146 -36.58695481 158.84861445 -32.73046875 157.26953125 C-30.37621197 157.30575059 -28.02204597 157.34808528 -25.66796875 157.39453125 C-21.59128661 157.17062067 -18.81104043 156.41028292 -15.95068359 153.390625 C-11.94988667 147.83821864 -8.8130277 141.76377818 -5.61083984 135.72851562 C-2.68379764 130.3441565 0.52873057 125.1438652 3.7406311 119.92623901 C4.83066359 118.14676395 5.90785548 116.36013916 6.98120117 114.57055664 C10.29785133 109.05053317 13.67650934 103.60265524 17.30859375 98.28125 C24.58691292 88.51944094 24.58691292 88.51944094 26.39453125 77.01953125 C25.70355597 74.76414009 24.99121581 72.51528447 24.26953125 70.26953125 C23.84831137 68.19354372 23.45383863 66.11204749 23.078125 64.02734375 C22.87364746 62.89844727 22.66916992 61.76955078 22.45849609 60.60644531 C22.2517627 59.46401367 22.0450293 58.32158203 21.83203125 57.14453125 C21.43112593 54.9517342 21.01659719 52.76136672 20.5859375 50.57421875 C20.40490479 49.62530762 20.22387207 48.67639648 20.03735352 47.69873047 C18.20611738 41.90515349 11.59541945 38.60921701 6.55859375 35.68359375 C3.4965104 34.02877417 3.4965104 34.02877417 0.91796875 34.60546875 C-1.06793765 35.67776255 -1.06793765 35.67776255 -2.91015625 37.01953125 C-6.61979254 39.56692098 -10.6607295 39.64194108 -14.98828125 38.86328125 C-22.02310445 36.86014515 -26.92018238 33.30614065 -30.66796875 27.01953125 C-32.92542501 19.05203858 -32.38213436 12.77548648 -28.36328125 5.47265625 C-21.31448528 -4.03815937 -10.07859426 -4.38132439 0 0 Z M-19.73046875 13.26953125 C-21.18194778 16.1724893 -21.102859 18.04214904 -20.73046875 21.26953125 C-18.41001613 24.88670739 -16.8343766 26.84675803 -12.79296875 28.39453125 C-8.72219004 28.22837702 -6.8486063 26.8207347 -3.73046875 24.26953125 C-1.28470048 20.60087884 -1.49439621 18.59752782 -1.73046875 14.26953125 C-2.06046875 13.60953125 -2.39046875 12.94953125 -2.73046875 12.26953125 C-3.39046875 12.26953125 -4.05046875 12.26953125 -4.73046875 12.26953125 C-4.73046875 11.60953125 -4.73046875 10.94953125 -4.73046875 10.26953125 C-11.55100268 7.23818284 -14.31899335 8.21882087 -19.73046875 13.26953125 Z " fill="#05BC63" transform="translate(400.73046875,73.73046875)"/>
<path d="M0 0 C5.03658044 3.56245933 9.51047996 7.66915952 11.0703125 13.8125 C12.14097094 20.37313046 11.0027572 25.97661625 7.421875 31.60546875 C4.91534378 34.81795339 2.23551574 37.07265044 -1.4375 38.8125 C-2.4275 38.8125 -3.4175 38.8125 -4.4375 38.8125 C-4.35371094 39.46395996 -4.26992188 40.11541992 -4.18359375 40.78662109 C-2.00059964 60.58900279 -6.95466565 72.77560287 -18.58154297 88.30029297 C-20.41810019 90.6695047 -20.41810019 90.6695047 -21.56298828 92.85986328 C-22.55078125 94.5234375 -22.55078125 94.5234375 -25.4375 96.8125 C-31.5800367 97.65515488 -37.75468804 97.2643145 -43.93359375 97.046875 C-50.63976315 96.67855476 -50.63976315 96.67855476 -56.32519531 99.53051758 C-57.55496398 101.5774044 -58.49658622 103.62179771 -59.4375 105.8125 C-63.56757739 109.7662936 -68.47083497 111.6129455 -74.140625 111.9453125 C-81.01102848 111.54804427 -86.78703434 108.89556712 -91.4375 103.8125 C-95.32840138 97.18617704 -96.23337085 91.26730202 -94.4375 83.8125 C-92.47740513 78.6182486 -89.60870421 74.51378981 -84.6171875 71.8359375 C-78.13104452 69.11430103 -72.35845499 68.83117829 -65.8125 71.375 C-61.27227914 73.57441495 -58.17742056 76.59497942 -55.4375 80.8125 C-55.1075 81.8025 -54.7775 82.7925 -54.4375 83.8125 C-46.57058307 85.0530376 -38.14675699 86.2828197 -30.4375 83.8125 C-24.95320059 79.21174305 -22.07112975 72.49337129 -19.38525391 65.98901367 C-18.4375 63.8125 -18.4375 63.8125 -16.4375 60.8125 C-16.0711141 58.39536521 -16.0711141 58.39536521 -16.0234375 55.70703125 C-15.98476563 54.72412109 -15.94609375 53.74121094 -15.90625 52.72851562 C-15.8753125 51.70435547 -15.844375 50.68019531 -15.8125 49.625 C-15.77382813 48.58923828 -15.73515625 47.55347656 -15.6953125 46.48632812 C-15.60101704 43.92856378 -15.51541798 41.37080713 -15.4375 38.8125 C-16.80648437 38.43351562 -16.80648437 38.43351562 -18.203125 38.046875 C-23.89863666 35.87322562 -27.28520987 31.21727941 -29.875 25.8125 C-31.28998575 18.26590933 -30.75241411 12.2908475 -26.4375 5.8125 C-18.9874633 -1.35272645 -9.92543334 -3.42878606 0 0 Z M-18.4375 14.8125 C-19.57311193 17.84079849 -19.56838721 19.31274883 -18.75 22.4375 C-17.22457154 25.19779912 -16.21281931 26.3123274 -13.4375 27.8125 C-10.02083333 28.89583333 -10.02083333 28.89583333 -6.4375 28.8125 C-3.63560554 27.04608828 -1.92225089 25.78200178 -0.4375 22.8125 C0.15670843 16.93685706 0.15670843 16.93685706 -2.4375 11.8125 C-5.76978304 9.59097797 -7.57838392 9.0644961 -11.50390625 9.32421875 C-14.89716968 10.18110346 -16.42163808 12.06359739 -18.4375 14.8125 Z " fill="#05BC63" transform="translate(417.4375,342.1875)"/>
<path d="M0 0 C1.27617187 0.02320313 2.55234375 0.04640625 3.8671875 0.0703125 C5.78917969 0.09738281 5.78917969 0.09738281 7.75 0.125 C9.23113281 0.15980469 9.23113281 0.15980469 10.7421875 0.1953125 C14.13364754 6.5611875 16.55833812 13.01306613 18.8515625 19.84375 C19.40907196 21.48435898 19.40907196 21.48435898 19.97784424 23.15811157 C20.75700488 25.45490576 21.53338842 27.75264374 22.30712891 30.05126953 C23.49615215 33.58208556 24.69464769 37.10958043 25.89453125 40.63671875 C26.65159776 42.87220759 27.4081274 45.10787832 28.1640625 47.34375 C28.52336853 48.40201996 28.88267456 49.46028992 29.25286865 50.55062866 C29.58031067 51.52569366 29.90775269 52.50075867 30.24511719 53.50537109 C30.68002472 54.79488174 30.68002472 54.79488174 31.12371826 56.11044312 C31.7421875 58.1953125 31.7421875 58.1953125 31.7421875 60.1953125 C27.71340737 60.84483261 23.93122197 61.35040395 19.8671875 60.8203125 C16.41736005 58.18220916 15.6490866 54.33165719 14.7421875 50.1953125 C14.7421875 49.2053125 14.7421875 48.2153125 14.7421875 47.1953125 C7.4821875 47.5253125 0.2221875 47.8553125 -7.2578125 48.1953125 C-8.5778125 52.1553125 -9.8978125 56.1153125 -11.2578125 60.1953125 C-17.6928125 60.6903125 -17.6928125 60.6903125 -24.2578125 61.1953125 C-23.64516935 54.51317274 -21.49619392 48.51791716 -19.29296875 42.20703125 C-18.89959824 41.06748489 -18.50622772 39.92793854 -18.10093689 38.75386047 C-17.27099968 36.35493101 -16.43789017 33.95709698 -15.60180664 31.56030273 C-14.31975247 27.88120537 -13.05082859 24.19776208 -11.78320312 20.51367188 C-10.97473882 18.1820209 -10.16552025 15.85063129 -9.35546875 13.51953125 C-8.97520035 12.41437668 -8.59493195 11.30922211 -8.20314026 10.170578 C-7.84614548 9.1522438 -7.4891507 8.13390961 -7.12133789 7.0847168 C-6.80902725 6.18649704 -6.49671661 5.28827728 -6.17494202 4.36283875 C-4.68003579 0.82980615 -3.87883658 0.23254416 0 0 Z M2.7421875 15.1953125 C1.73482122 18.13033845 0.73758246 21.06870711 -0.2578125 24.0078125 C-0.68707031 25.25788086 -0.68707031 25.25788086 -1.125 26.53320312 C-1.39570313 27.33564453 -1.66640625 28.13808594 -1.9453125 28.96484375 C-2.32236328 30.07243042 -2.32236328 30.07243042 -2.70703125 31.20239258 C-3.39100401 33.33264129 -3.39100401 33.33264129 -3.2578125 36.1953125 C1.3621875 36.1953125 5.9821875 36.1953125 10.7421875 36.1953125 C8.88043961 28.93449575 6.68731783 22.08721648 3.7421875 15.1953125 C3.4121875 15.1953125 3.0821875 15.1953125 2.7421875 15.1953125 Z " fill="#FABD5D" transform="translate(328.2578125,334.8046875)"/>
<path d="M0 0 C0.33 0 0.66 0 1 0 C0.99476318 1.21664841 0.98952637 2.43329681 0.98413086 3.68681335 C0.93999613 15.14934502 0.93777496 26.61121953 0.97665405 38.07377911 C0.99529409 43.96701222 0.9991354 49.85948292 0.96923828 55.75268555 C0.9409313 61.43949611 0.95139064 67.12503235 0.98880005 72.81177711 C0.99625007 74.98189845 0.98969991 77.15211422 0.96896362 79.32214928 C0.94230442 82.36162903 0.96529855 85.39696698 1 88.4362793 C0.98058853 89.33467529 0.96117706 90.23307129 0.94117737 91.15869141 C1.00005043 93.68042849 1.1261665 95.63137487 2 98 C3.89466377 99.7057381 5.70280256 100.78291694 7.99829102 101.88236713 C11.66721871 103.93087379 13.44152875 107.19706376 15 111 C16.80385352 117.48326176 16.09051505 122.72534489 13.2890625 128.8046875 C10.0639854 134.29709153 5.2824227 136.82547559 -0.640625 138.5546875 C-6.46829659 139.65461227 -11.21161145 138.73496441 -16.3125 135.75 C-19.48145489 133.55708322 -21.98096868 131.33579088 -24 128 C-23.67 127.01 -23.34 126.02 -23 125 C-22.01 125.99 -21.02 126.98 -20 128 C-19.566875 127.0409375 -19.566875 127.0409375 -19.125 126.0625 C-18 124 -18 124 -16 123 C-14.86649466 120.98330173 -14.86649466 120.98330173 -14 119 C-13.54625 119.969375 -13.0925 120.93875 -12.625 121.9375 C-11.34213779 125.07079582 -11.34213779 125.07079582 -9 126 C-3.39065035 126.59779862 -3.39065035 126.59779862 1.4375 124.25 C3.49388274 121.37503628 3.49388274 121.37503628 4 118 C3.14563317 114.28386894 3.14563317 114.28386894 1 111 C-3.31634929 109.08162254 -6.47040272 108.62739476 -11 110 C-7.76492002 105.5885273 -4.15442808 105.15305442 0.953125 104.296875 C1.62859375 104.19890625 2.3040625 104.1009375 3 104 C3 103.34 3 102.68 3 102 C1.68 101.67 0.36 101.34 -1 101 C-1.02316504 88.56951193 -1.04093636 76.139029 -1.05181217 63.70852375 C-1.05703187 57.9366155 -1.064113 52.16472202 -1.07543945 46.39282227 C-1.0863007 40.82316632 -1.09228373 35.25352459 -1.09487724 29.68385887 C-1.09672564 27.55838993 -1.10033504 25.43292177 -1.10573006 23.30745888 C-1.11298339 20.33166444 -1.11398912 17.3559288 -1.11352539 14.38012695 C-1.11712067 13.50043243 -1.12071594 12.62073792 -1.12442017 11.71438599 C-1.11760428 7.67526092 -1.01502498 3.94091625 0 0 Z " fill="#0DB564" transform="translate(298,321)"/>
<path d="M0 0 C0.9075 0.00257813 1.815 0.00515625 2.75 0.0078125 C4.11125 0.00394531 4.11125 0.00394531 5.5 0 C7.75 0.1328125 7.75 0.1328125 8.75 1.1328125 C8.84381302 2.97399279 8.86743954 4.81878891 8.86352539 6.66235352 C8.86344986 7.84350235 8.86337433 9.02465118 8.86329651 10.24159241 C8.85813522 11.5269841 8.85297394 12.81237579 8.84765625 14.13671875 C8.8462413 15.44487045 8.84482635 16.75302216 8.84336853 18.10081482 C8.8395441 21.58444109 8.82971446 25.06802589 8.81866455 28.55163574 C8.80844882 32.10407958 8.80387056 35.65653009 8.79882812 39.20898438 C8.78809212 46.18361082 8.7710166 53.15820967 8.75 60.1328125 C5.0144843 61.17183011 1.6322667 61.27931313 -2.25 61.1328125 C-3.99299388 59.38981862 -3.37758682 56.98874998 -3.37939453 54.61914062 C-3.38254669 53.44121948 -3.38569885 52.26329834 -3.38894653 51.04968262 C-3.3869223 49.76742798 -3.38489807 48.48517334 -3.3828125 47.1640625 C-3.38376923 45.85828247 -3.38472595 44.55250244 -3.38571167 43.20715332 C-3.38718833 40.43968528 -3.38503511 37.67224946 -3.38037109 34.90478516 C-3.37467381 31.35018601 -3.37795298 27.79566236 -3.38394356 24.24106598 C-3.38841747 20.86122536 -3.38528886 17.48140527 -3.3828125 14.1015625 C-3.38483673 12.81930786 -3.38686096 11.53705322 -3.38894653 10.21594238 C-3.38579437 9.03802124 -3.38264221 7.8601001 -3.37939453 6.64648438 C-3.37859894 5.60359253 -3.37780334 4.56070068 -3.37698364 3.48620605 C-3.20923025 0.37722485 -3.10267941 0.18314427 0 0 Z " fill="#FCBE5C" transform="translate(371.25,334.8671875)"/>
<path d="M0 0 C1.27207078 -0.00256327 2.54414155 -0.00512655 3.85475993 -0.0077675 C7.35083932 -0.01441541 10.84663839 -0.00255947 14.34268212 0.01256669 C18.12573692 0.025606 21.90877779 0.02113205 25.69184875 0.01885986 C32.2347407 0.01729208 38.77754242 0.02664922 45.32041168 0.04357338 C54.78011353 0.06802636 64.23977205 0.07577507 73.69950208 0.07953735 C89.04983516 0.08609199 104.40012022 0.10602626 119.75042725 0.13444519 C134.65569825 0.16201139 149.56095618 0.18323242 164.46624756 0.19596863 C165.84599099 0.19715088 165.84599099 0.19715088 167.25360802 0.19835702 C171.86843834 0.20227233 176.48326876 0.20606341 181.09809923 0.20979273 C219.34080337 0.24085785 257.58345393 0.29366664 295.82611084 0.36076355 C295.82611084 0.69076355 295.82611084 1.02076355 295.82611084 1.36076355 C294.90525546 1.36336792 294.90525546 1.36336792 293.96579695 1.36602491 C257.53176432 1.46918914 221.09774959 1.57733028 184.66375092 1.69188049 C180.28313793 1.70564907 175.90252482 1.71937631 171.52191162 1.733078 C170.64985846 1.73580631 169.7778053 1.73853461 168.87932628 1.74134559 C154.78341495 1.78534762 140.68749587 1.8260063 126.59157103 1.86541616 C112.1137631 1.90596862 97.63596945 1.95014472 83.15818262 1.9976421 C74.2340644 2.02680659 65.30994705 2.05318871 56.38581014 2.07594252 C50.25532251 2.09184493 44.12485227 2.11128636 37.99438405 2.13343196 C34.46438851 2.14608161 30.93440594 2.15724663 27.40439415 2.16418266 C4.41388135 2.15910579 4.41388135 2.15910579 -18.48638916 3.98576355 C-22.17388916 4.36076355 -22.17388916 4.36076355 -25.17388916 3.36076355 C-16.64685004 0.82233289 -8.87284607 -0.06642023 0 0 Z " fill="#27AF6D" transform="translate(110.17388916015625,41.63923645019531)"/>
<path d="M0 0 C34.98 0 69.96 0 106 0 C102.40040991 1.79979505 101.42518225 2.24981202 97.72259521 2.24050903 C96.87743221 2.24326403 96.03226921 2.24601902 95.16149521 2.2488575 C94.2390514 2.24166128 93.31660759 2.23446507 92.36621094 2.22705078 C91.37451023 2.22729185 90.38280952 2.22753292 89.36105728 2.2277813 C86.15207182 2.22628894 82.94331889 2.21105957 79.734375 2.1953125 C77.75276806 2.19237183 75.77115958 2.19033154 73.78955078 2.18920898 C66.44301016 2.17872445 59.09650279 2.15080204 51.75 2.125 C35.3325 2.08375 18.915 2.0425 2 2 C2 37.97 2 73.94 2 111 C-0.475 111.495 -0.475 111.495 -3 112 C-2.01 111.01 -2.01 111.01 -1 110 C-0.68655112 107.96103102 -0.68655112 107.96103102 -0.7215271 105.58346558 C-0.71036362 104.6551593 -0.69920013 103.72685303 -0.68769836 102.77041626 C-0.68553818 101.74902557 -0.68337799 100.72763489 -0.68115234 99.67529297 C-0.66608391 98.06551575 -0.66608391 98.06551575 -0.65071106 96.42321777 C-0.61972909 92.86287999 -0.60280222 89.30261789 -0.5859375 85.7421875 C-0.56723793 83.27881207 -0.54766545 80.81544312 -0.5272522 78.3520813 C-0.47579706 71.8583762 -0.43624306 65.3646503 -0.39910889 58.87084961 C-0.35213191 51.08480163 -0.290477 43.29885629 -0.23126221 35.51289368 C-0.14288701 23.67530423 -0.07323901 11.8377364 0 0 Z " fill="#1BAE6B" transform="translate(287,309)"/>
<path d="M0 0 C0.33 0 0.66 0 1 0 C3.6408126 20.53231793 -1.04131393 33.32772587 -13.14404297 49.48779297 C-14.98060019 51.8570047 -14.98060019 51.8570047 -16.12548828 54.04736328 C-17.11328125 55.7109375 -17.11328125 55.7109375 -20 58 C-26.1425367 58.84265488 -32.31718804 58.4518145 -38.49609375 58.234375 C-45.21566543 57.8556785 -45.21566543 57.8556785 -50.87890625 60.75097656 C-52.1976417 62.86006862 -52.1976417 62.86006862 -53.02539062 65.07666016 C-54.25699444 67.50716488 -55.51494502 68.01821014 -58 69 C-57 66 -57 66 -54 64 C-54.33 63.34 -54.66 62.68 -55 62 C-54.34 62 -53.68 62 -53 62 C-52.814375 60.7934375 -52.814375 60.7934375 -52.625 59.5625 C-52.315625 58.2940625 -52.315625 58.2940625 -52 57 C-49.0471528 55.5235764 -46.31551017 55.77727061 -43.0234375 55.68359375 C-42.33819 55.66281265 -41.6529425 55.64203156 -40.94692993 55.62062073 C-38.75638931 55.55519815 -36.56572811 55.49627446 -34.375 55.4375 C-32.8906125 55.39430782 -31.40623722 55.3506933 -29.921875 55.30664062 C-26.28137916 55.19952447 -22.64074749 55.09823638 -19 55 C-18.34 52.36 -17.68 49.72 -17 47 C-16.34 47 -15.68 47 -15 47 C-15 44.36 -15 41.72 -15 39 C-15.99 39.495 -15.99 39.495 -17 40 C-17.33 39.34 -17.66 38.68 -18 38 C-18.99 40.31 -19.98 42.62 -21 45 C-21.99 45 -22.98 45 -24 45 C-22.47146065 40.72813475 -20.28490519 37.00673137 -17.875 33.1875 C-17.50246094 32.59001953 -17.12992187 31.99253906 -16.74609375 31.37695312 C-15.8342952 29.91573749 -14.91764024 28.45755415 -14 27 C-13.34 27.99 -12.68 28.98 -12 30 C-11.01 30 -10.02 30 -9 30 C-8.34 30.33 -7.68 30.66 -7 31 C-6.67 30.34 -6.34 29.68 -6 29 C-5.34 29 -4.68 29 -4 29 C-3.67 28.34 -3.34 27.68 -3 27 C-2.34 27 -1.68 27 -1 27 C-1.00523682 26.21761963 -1.01047363 25.43523926 -1.01586914 24.62915039 C-1.03657106 21.10694167 -1.04963838 17.5847457 -1.0625 14.0625 C-1.07087891 12.83080078 -1.07925781 11.59910156 -1.08789062 10.33007812 C-1.09111328 9.16025391 -1.09433594 7.99042969 -1.09765625 6.78515625 C-1.10289307 5.70113525 -1.10812988 4.61711426 -1.11352539 3.50024414 C-1 1 -1 1 0 0 Z " fill="#0EB867" transform="translate(412,381)"/>
<path d="M0 0 C0.495 1.485 0.495 1.485 1 3 C2.98 2.67 4.96 2.34 7 2 C7 3.32 7 4.64 7 6 C7.66 6.33 8.32 6.66 9 7 C9.66 5.02 10.32 3.04 11 1 C11.66 1.33 12.32 1.66 13 2 C11.09949819 5.68133242 9.19715437 9.3617056 7.29321289 13.04125977 C6.64786831 14.28905447 6.00299847 15.53709484 5.35864258 16.78540039 C4.42398611 18.59588879 3.48753562 20.4054401 2.55078125 22.21484375 C1.71027222 23.84087524 1.71027222 23.84087524 0.8527832 25.49975586 C-1.37025819 29.699485 -3.69232015 33.84617627 -6 38 C-17.88 38 -29.76 38 -42 38 C-42 37.67 -42 37.34 -42 37 C-41.17274414 36.98018066 -40.34548828 36.96036133 -39.49316406 36.93994141 C-35.74512194 36.84468788 -31.99763683 36.73500891 -28.25 36.625 C-26.94804687 36.5940625 -25.64609375 36.563125 -24.3046875 36.53125 C-22.42910156 36.47324219 -22.42910156 36.47324219 -20.515625 36.4140625 C-19.36352539 36.3826416 -18.21142578 36.3512207 -17.02441406 36.31884766 C-14.12634273 36.01331963 -12.40895861 35.59957694 -10 34 C-9.505 33.01 -9.505 33.01 -9 32 C-7.68 32.33 -6.36 32.66 -5 33 C-5.495 30.03 -5.495 30.03 -6 27 C-4.35 26.67 -2.7 26.34 -1 26 C0.19351312 22.65670531 0.19351312 22.65670531 1 19 C0.34 18.01 -0.32 17.02 -1 16 C-2.98 16.66 -4.96 17.32 -7 18 C-7 18.66 -7 19.32 -7 20 C-7.66 20 -8.32 20 -9 20 C-9.495 21.485 -9.495 21.485 -10 23 C-10.33 22.34 -10.66 21.68 -11 21 C-10.10375977 18.84521484 -10.10375977 18.84521484 -8.69140625 16.2109375 C-8.19189453 15.26992188 -7.69238281 14.32890625 -7.17773438 13.359375 C-6.64470703 12.37453125 -6.11167969 11.3896875 -5.5625 10.375 C-4.76875977 8.88613281 -4.76875977 8.88613281 -3.95898438 7.3671875 C-2.6463946 4.90755982 -1.32648654 2.45215293 0 0 Z " fill="#0ABA64" transform="translate(260,427)"/>
<path d="M0 0 C1.32 0.33 2.64 0.66 4 1 C0.9190419 4.33405993 -1.44766438 5.29134826 -5.85322571 5.48101807 C-7.85176273 5.49259475 -9.85050144 5.48202216 -11.84887695 5.45410156 C-12.94200699 5.45468567 -14.03513702 5.45526978 -15.16139221 5.45587158 C-18.77067943 5.45308727 -22.37913848 5.42197731 -25.98828125 5.390625 C-28.49219817 5.38316389 -30.99612093 5.37747034 -33.50004578 5.37347412 C-39.41447962 5.35976775 -45.32864822 5.32824988 -51.24294585 5.28807616 C-58.63912462 5.23893015 -66.03534032 5.21748574 -73.43164062 5.1953125 C-86.62124438 5.15242397 -99.8106034 5.0849298 -113 5 C-113 6.65 -113 8.3 -113 10 C-113.33 10 -113.66 10 -114 10 C-114.04254356 8.00045254 -114.04080783 5.99958364 -114 4 C-113 3 -113 3 -111.11218929 2.87695217 C-109.8636207 2.87833486 -109.8636207 2.87833486 -108.58982849 2.87974548 C-107.63765442 2.87837082 -106.68548035 2.87699615 -105.70445251 2.87557983 C-104.65141434 2.87917511 -103.59837616 2.88277039 -102.51342773 2.88647461 C-100.85997849 2.88625557 -100.85997849 2.88625557 -99.17312622 2.8860321 C-95.50992908 2.88673179 -91.84678206 2.89452676 -88.18359375 2.90234375 C-85.65153532 2.90420773 -83.11947652 2.90563173 -80.5874176 2.90663147 C-74.59151751 2.91006654 -68.59563911 2.91795731 -62.59974772 2.92798096 C-55.77518942 2.93914323 -48.95063028 2.94465283 -42.12606514 2.94967639 C-28.08403336 2.96013996 -14.04201767 2.9777387 0 3 C0 2.01 0 1.02 0 0 Z " fill="#20AB69" transform="translate(388,294)"/>
<path d="M0 0 C1.25541557 3.76624671 0.37061958 5.37188934 -1 9 C-1.66 9 -2.32 9 -3 9 C-3 9.66 -3 10.32 -3 11 C-3.66 11 -4.32 11 -5 11 C-4.34 12.32 -3.68 13.64 -3 15 C-4.32 16.32 -5.64 17.64 -7 19 C-6.67 19.33 -6.34 19.66 -6 20 C-5.34 19.34 -4.68 18.68 -4 18 C-2.35 18.66 -0.7 19.32 1 20 C-0.63952583 24.6393176 -3.06871052 28.63855858 -5.625 32.8125 C-6.04523438 33.50537109 -6.46546875 34.19824219 -6.8984375 34.91210938 C-7.9289467 36.61010748 -8.96401681 38.30533614 -10 40 C-10.33 38.68 -10.66 37.36 -11 36 C-10.34 36 -9.68 36 -9 36 C-8.1558062 32.02022924 -7.55312735 28.02992782 -7 24 C-7.66 23.67 -8.32 23.34 -9 23 C-9.04125 23.556875 -9.0825 24.11375 -9.125 24.6875 C-10.24052084 27.63566221 -12.13588839 28.75365512 -14.5703125 30.640625 C-16.7833925 32.744865 -17.30414286 35.09005197 -18 38 C-18.33 38.99 -18.66 39.98 -19 41 C-21.97 41.495 -21.97 41.495 -25 42 C-19.50538983 32.26653014 -13.82482163 22.66405515 -8 13.125 C-7.21727309 11.83995022 -6.43472034 10.55479434 -5.65234375 9.26953125 C-3.77022201 6.17846988 -1.88579403 3.08882271 0 0 Z " fill="#0FB566" transform="translate(408,188)"/>
<path d="M0 0 C0.33 0 0.66 0 1 0 C1 45.21 1 90.42 1 137 C0.34 137 -0.32 137 -1 137 C-1 137.66 -1 138.32 -1 139 C-1.66 139 -2.32 139 -3 139 C-2.51361526 137.93848583 -2.51361526 137.93848583 -2.01740456 136.85552692 C-0.93065128 133.80536049 -0.73967539 131.53894066 -0.7215271 128.31156921 C-0.71036362 127.17719925 -0.69920013 126.04282928 -0.68769836 124.87408447 C-0.68553818 123.63906189 -0.68337799 122.40403931 -0.68115234 121.1315918 C-0.67110672 119.82388321 -0.6610611 118.51617462 -0.65071106 117.1688385 C-0.62344653 113.5907487 -0.60827223 110.0126982 -0.59528303 106.43453193 C-0.57963693 102.69221482 -0.55285143 98.94997777 -0.5272522 95.2077179 C-0.48049058 88.1247211 -0.44373383 81.04170919 -0.41057932 73.95863706 C-0.37233943 65.89332882 -0.32293417 57.82810104 -0.27259517 49.76286066 C-0.16931424 33.17529825 -0.08004139 16.58769117 0 0 Z " fill="#1AA064" transform="translate(264,288)"/>
<path d="M0 0 C1.65 0 3.3 0 5 0 C4.67 1.65 4.34 3.3 4 5 C4.99 5.33 5.98 5.66 7 6 C7 7.65 7 9.3 7 11 C7.66 11.33 8.32 11.66 9 12 C8.67 13.98 8.34 15.96 8 18 C5.75 18.75 5.75 18.75 3 19 C0.84765625 17.4296875 0.84765625 17.4296875 -1 15 C-1.42578125 11.8359375 -1.42578125 11.8359375 -1.3125 8.375 C-1.28800781 7.22773438 -1.26351562 6.08046875 -1.23828125 4.8984375 C-1 2 -1 2 0 0 Z " fill="#01BE62" transform="translate(180,452)"/>
<path d="M0 0 C0.95465783 2.16967689 1.14401212 3.56328793 0.3984375 5.82421875 C-0.35870385 7.5684743 -1.17609198 9.28627131 -2 11 C-1.34 11 -0.68 11 0 11 C0 11.99 0 12.98 0 14 C-1.32 13.67 -2.64 13.34 -4 13 C-5.18674785 28.87057829 -5.11508625 44.71815413 -5.0625 60.625 C-5.0568935 63.28906165 -5.05291211 65.95312272 -5.04882812 68.6171875 C-5.03792362 75.07814548 -5.02128259 81.5390683 -5 88 C-5.33 88 -5.66 88 -6 88 C-6.85805991 84.27303741 -7.14100796 80.80018536 -7.17700195 76.97900391 C-7.18983719 75.78651031 -7.20267242 74.59401672 -7.21589661 73.36538696 C-7.22328354 72.08207489 -7.23067047 70.79876282 -7.23828125 69.4765625 C-7.24235678 68.81585125 -7.2464323 68.15514 -7.25063133 67.4744072 C-7.27145384 63.96878124 -7.28576508 60.46319383 -7.29516602 56.95751953 C-7.30614897 53.37949305 -7.34046348 49.80210253 -7.38033772 46.22429848 C-7.40681056 43.43743947 -7.41488512 40.65072405 -7.41844749 37.86375046 C-7.42554238 35.91710195 -7.45185493 33.97055282 -7.47883606 32.02407837 C-7.45154894 20.60754364 -5.40419508 10.15882104 0 0 Z " fill="#18BA70" transform="translate(46,78)"/>
<path d="M0 0 C1.65 0 3.3 0 5 0 C5.99 3.63 6.98 7.26 8 11 C6.68 11.33 5.36 11.66 4 12 C4 13.65 4 15.3 4 17 C3.01 17 2.02 17 1 17 C1 15.68 1 14.36 1 13 C-0.98 13.99 -0.98 13.99 -3 15 C-4.67947366 9.28978955 -2.72384822 5.05857527 0 0 Z " fill="#FCBC56" transform="translate(325,337)"/>
<path d="M0 0 C12.20422915 -0.06943137 24.4084115 -0.12277636 36.61279774 -0.15543652 C42.27945227 -0.1711097 47.94597193 -0.19237822 53.61254883 -0.22631836 C59.07846596 -0.25885272 64.54425316 -0.27684055 70.01025963 -0.28463173 C72.09832493 -0.29018589 74.18638292 -0.30103145 76.27439308 -0.31719017 C79.19325906 -0.33888562 82.11158429 -0.34197022 85.03051758 -0.34057617 C86.33279297 -0.35675491 86.33279297 -0.35675491 87.66137695 -0.3732605 C93.62155841 -0.3423447 93.62155841 -0.3423447 95.68308544 1.52254772 C96.33495815 2.2538866 96.33495815 2.2538866 97 3 C97.33 3 97.66 3 98 3 C98 4.98 98 6.96 98 9 C95.5 6.6875 95.5 6.6875 93 4 C93 3.01 93 2.02 93 1 C62.31 1 31.62 1 0 1 C0 0.67 0 0.34 0 0 Z " fill="#22A569" transform="translate(299,319)"/>
<path d="M0 0 C0.33 0.66 0.66 1.32 1 2 C2.65 2 4.3 2 6 2 C6 4.97 6 7.94 6 11 C5.34 11 4.68 11 4 11 C3.773125 11.5775 3.54625 12.155 3.3125 12.75 C1.66961977 15.5663661 -0.39533227 17.08077114 -3 19 C-3.66 18.67 -4.32 18.34 -5 18 C-4.690625 17.360625 -4.38125 16.72125 -4.0625 16.0625 C-2.89861596 12.70777542 -2.58797375 9.70652128 -2.34375 6.18359375 C-1.9683122 3.79871043 -1.17749345 2.09384925 0 0 Z " fill="#01BE61" transform="translate(449,244)"/>
<path d="M0 0 C0.66 0.33 1.32 0.66 2 1 C0.47735126 4.29512517 -1.16075932 6.70935419 -4 9 C-8.85791414 9.9690089 -13.63012379 9.70864946 -18.5625 9.5 C-25.81968838 9.15537353 -25.81968838 9.15537353 -33 10 C-35.05807419 11.91279206 -35.98034759 13.47845355 -37.02319336 16.07226562 C-38.25627958 18.50576945 -39.51163017 19.0174179 -42 20 C-41 17 -41 17 -38 15 C-38.33 14.34 -38.66 13.68 -39 13 C-38.34 13 -37.68 13 -37 13 C-36.814375 11.7934375 -36.814375 11.7934375 -36.625 10.5625 C-36.41875 9.716875 -36.2125 8.87125 -36 8 C-33.0471528 6.5235764 -30.31551017 6.77727061 -27.0234375 6.68359375 C-25.99556625 6.6524221 -25.99556625 6.6524221 -24.94692993 6.62062073 C-22.75638931 6.55519815 -20.56572811 6.49627446 -18.375 6.4375 C-16.8906125 6.39430782 -15.40623722 6.3506933 -13.921875 6.30664062 C-10.28137916 6.19952447 -6.64074749 6.09823638 -3 6 C-2.690625 5.38125 -2.38125 4.7625 -2.0625 4.125 C-1.375 2.75 -0.6875 1.375 0 0 Z " fill="#1EAC6C" transform="translate(396,430)"/>
<path d="M0 0 C0.66 0.33 1.32 0.66 2 1 C1.01 1.33 0.02 1.66 -1 2 C-0.73323796 3.98491642 -0.73323796 3.98491642 0 6 C0.99 6.33 1.98 6.66 3 7 C4.6442351 11.93270529 3.18615592 14.54024193 1 19 C-1.1519437 15.77208445 -1.20086443 14.71599191 -1 11 C-2.32 10.67 -3.64 10.34 -5 10 C-5.19335938 10.71027344 -5.38671875 11.42054688 -5.5859375 12.15234375 C-5.84632813 13.07144531 -6.10671875 13.99054688 -6.375 14.9375 C-6.63023437 15.85402344 -6.88546875 16.77054687 -7.1484375 17.71484375 C-8 20 -8 20 -10 21 C-9.83746132 13.78919294 -8.64641617 8.6324289 -4 3 C-1.6875 1 -1.6875 1 0 0 Z " fill="#07BA67" transform="translate(282,421)"/>
<path d="M0 0 C2.97 1.65 5.94 3.3 9 5 C8.01 5.495 8.01 5.495 7 6 C4.375 5.0625 4.375 5.0625 2 4 C1.34 5.98 0.68 7.96 0 10 C0.99 10.66 1.98 11.32 3 12 C3 12.99 3 13.98 3 15 C3.66 15 4.32 15 5 15 C6.14302815 23.3230205 7.25166929 31.63051177 8 40 C6.41476037 37.11740915 5.59486635 34.57557586 5.03515625 31.33984375 C4.87466797 30.46392578 4.71417969 29.58800781 4.54882812 28.68554688 C4.22405674 26.85039289 3.90375753 25.01444195 3.58789062 23.17773438 C3.42611328 22.30310547 3.26433594 21.42847656 3.09765625 20.52734375 C2.95851807 19.73062256 2.81937988 18.93390137 2.67602539 18.11303711 C1.29735056 13.80374469 -2.22696066 12.14145476 -6 10 C-5.65220835 6.75394458 -5.03064129 6.02540985 -2.4375 3.875 C-1.633125 3.25625 -0.82875 2.6375 0 2 C0 1.34 0 0.68 0 0 Z " fill="#18B06B" transform="translate(418,103)"/>
<path d="M0 0 C0.5775 0.515625 1.155 1.03125 1.75 1.5625 C2.86375 2.2740625 2.86375 2.2740625 4 3 C5.32 2.67 6.64 2.34 8 2 C7.34 5.3 6.68 8.6 6 12 C2.37 12.33 -1.26 12.66 -5 13 C-4.34 12.67 -3.68 12.34 -3 12 C-2.34676114 9.71760106 -2.34676114 9.71760106 -1.9375 7.0625 C-1.08609272 2.17218543 -1.08609272 2.17218543 0 0 Z " fill="#FCC053" transform="translate(310,383)"/>
<path d="M0 0 C0.495 0.99 0.495 0.99 1 2 C0.28735352 3.78759766 0.28735352 3.78759766 -0.87109375 5.9140625 C-1.23904053 6.59936035 -1.6069873 7.2846582 -1.98608398 7.99072266 C-2.46505127 8.86003418 -2.94401855 9.7293457 -3.4375 10.625 C-4.943125 13.38875 -6.44875 16.1525 -8 19 C-19.88 19 -31.76 19 -44 19 C-44 18.67 -44 18.34 -44 18 C-43.17274414 17.98018066 -42.34548828 17.96036133 -41.49316406 17.93994141 C-37.74512194 17.84468788 -33.99763683 17.73500891 -30.25 17.625 C-28.94804687 17.5940625 -27.64609375 17.563125 -26.3046875 17.53125 C-24.42910156 17.47324219 -24.42910156 17.47324219 -22.515625 17.4140625 C-20.78747559 17.36693115 -20.78747559 17.36693115 -19.02441406 17.31884766 C-16.12634273 17.01331963 -14.40895861 16.59957694 -12 15 C-11.67 14.34 -11.34 13.68 -11 13 C-9.68 13.33 -8.36 13.66 -7 14 C-7.495 11.03 -7.495 11.03 -8 8 C-6.35 7.67 -4.7 7.34 -3 7 C-2.690625 6.030625 -2.38125 5.06125 -2.0625 4.0625 C-1 1 -1 1 0 0 Z " fill="#23AE6D" transform="translate(262,446)"/>
<path d="M0 0 C3 1 3 1 4.1875 3.0625 C4.455625 3.701875 4.72375 4.34125 5 5 C5.66 4.34 6.32 3.68 7 3 C8 6 8 6 8 9 C8.66 9.66 9.32 10.32 10 11 C9.67 11.33 9.34 11.66 9 12 C9.26275692 13.77889453 9.58748488 15.54869832 9.9375 17.3125 C11.06176051 23.59779532 11.20322736 29.63220954 11 36 C10.01 36.495 10.01 36.495 9 37 C8.96261719 36.05640625 8.92523438 35.1128125 8.88671875 34.140625 C8.24732305 21.65360306 6.18590199 11.05149288 0 0 Z " fill="#20AD6A" transform="translate(148,239)"/>
<path d="M0 0 C1 3 1 3 0.06640625 6.1953125 C-1.57779251 12.25027115 -1.18390836 18.46377391 -1.09375 24.68338013 C-1.04120861 28.36820392 -1.02185793 32.05314923 -1.00390625 35.73828125 C-0.99996857 36.45702927 -0.99603088 37.17577728 -0.99197388 37.91630554 C-0.96497769 45.97003336 -1.36786656 53.97416297 -2 62 C-2.33 62 -2.66 62 -3 62 C-3.22002558 54.75970939 -3.41464617 47.51904744 -3.59204102 40.27758789 C-3.6552703 37.81682057 -3.72420567 35.35619271 -3.79907227 32.89575195 C-3.90599369 29.34868759 -3.99203916 25.80161982 -4.07421875 22.25390625 C-4.11157639 21.1629213 -4.14893402 20.07193634 -4.18742371 18.94789124 C-4.31395903 12.44593903 -3.73775021 6.96019626 -1 1 C-0.67 0.67 -0.34 0.34 0 0 Z " fill="#0FB368" transform="translate(57,91)"/>
<path d="M0 0 C1.32 0.66 2.64 1.32 4 2 C4.33 2.99 4.66 3.98 5 5 C4.01 5.99 3.02 6.98 2 8 C2.99 8.66 3.98 9.32 5 10 C4.5504955 11.31554985 4.09010284 12.62738358 3.625 13.9375 C3.36976563 14.66839844 3.11453125 15.39929688 2.8515625 16.15234375 C2 18 2 18 0 19 C-0.1953125 16.94921875 -0.390625 14.8984375 -0.5859375 12.84765625 C-0.79089844 11.93306641 -0.79089844 11.93306641 -1 11 C-1.66 10.67 -2.32 10.34 -3 10 C-2.01 6.7 -1.02 3.4 0 0 Z " fill="#03BD64" transform="translate(418,345)"/>
<path d="M0 0 C0 0.66 0 1.32 0 2 C-0.99 2.33 -1.98 2.66 -3 3 C-3.12375 3.5775 -3.2475 4.155 -3.375 4.75 C-4 7 -4 7 -6.48828125 9.05859375 C-9.92879397 13.08768563 -9.77599635 16.1735979 -9.8125 21.3125 C-9.83763672 22.14845703 -9.86277344 22.98441406 -9.88867188 23.84570312 C-9.9472699 25.89663409 -9.97656493 27.94836593 -10 30 C-11.32 30.33 -12.64 30.66 -14 31 C-13.01 29.515 -13.01 29.515 -12 28 C-11.98560915 25.41252495 -12.05712809 22.89168599 -12.1875 20.3125 C-12.33474404 14.51354963 -12.09114266 10.17598432 -8.4375 5.484375 C-3.12631579 0 -3.12631579 0 0 0 Z " fill="#23AB6C" transform="translate(427,231)"/>
<path d="M0 0 C4.88695779 1.39627365 7.02164845 3.97520061 10 8 C10.66 9.32 11.32 10.64 12 12 C21.57 12.33 31.14 12.66 41 13 C41.66 11.68 42.32 10.36 43 9 C42.67 10.65 42.34 12.3 42 14 C31.44 14 20.88 14 10 14 C9.01 11.69 8.02 9.38 7 7 C6.01 6.67 5.02 6.34 4 6 C3.3125 3.9375 3.3125 3.9375 3 2 C2.01 2 1.02 2 0 2 C0 1.34 0 0.68 0 0 Z " fill="#24AD6D" transform="translate(206,441)"/>
<path d="M0 0 C0.5775 0.144375 1.155 0.28875 1.75 0.4375 C4 1 4 1 6.4765625 2.0078125 C12.06387232 3.58117912 17.70048323 3.39543503 23.4765625 3.47851562 C24.8378125 3.5181543 24.8378125 3.5181543 26.2265625 3.55859375 C27.45753662 3.57877563 27.45753662 3.57877563 28.71337891 3.59936523 C31.47928867 4.0839753 32.89937468 5.1823714 35 7 C30.74872079 6.74733648 26.49942849 6.46946312 22.25 6.1875 C21.06277344 6.11724609 19.87554687 6.04699219 18.65234375 5.97460938 C-1.39472599 4.60527401 -1.39472599 4.60527401 -6 0 C-2.25 -1.125 -2.25 -1.125 0 0 Z " fill="#1AB16C" transform="translate(86,211)"/>
<path d="M0 0 C2.69461075 5.30159188 3.70718065 10.03238783 3 16 C1.6875 18.0625 1.6875 18.0625 0 20 C-1.11080749 22.29666954 -2.04380747 24.63228516 -3 27 C-3.66 27 -4.32 27 -5 27 C-5 27.66 -5 28.32 -5 29 C-6.98 29.99 -6.98 29.99 -9 31 C-7.53970921 26.79683497 -5.37025371 23.62159818 -2.8125 20 C1.1633589 14.03014031 1.56584721 9.42297573 0.5 2.38671875 C0.335 1.59910156 0.17 0.81148437 0 0 Z " fill="#1DAB6D" transform="translate(426,144)"/>
<path d="M0 0 C-1.65 0.33 -3.3 0.66 -5 1 C-4.67 8.59 -4.34 16.18 -4 24 C-4.99 23.67 -5.98 23.34 -7 23 C-7.33 16.73 -7.66 10.46 -8 4 C-8.66 4 -9.32 4 -10 4 C-10 2.68 -10 1.36 -10 0 C-3.375 -1.125 -3.375 -1.125 0 0 Z " fill="#19AD68" transform="translate(60,291)"/>
<path d="M0 0 C0.52980469 0.81726563 1.05960937 1.63453125 1.60546875 2.4765625 C3.77695101 5.26674522 3.77695101 5.26674522 6.98828125 5.5234375 C8.63376953 5.44996094 8.63376953 5.44996094 10.3125 5.375 C12.02953125 5.30925781 12.02953125 5.30925781 13.78125 5.2421875 C17.24009752 4.98193441 20.59095873 4.63424024 24 4 C20.27939676 7.72060324 14.50396047 7.9924806 9.3984375 8.0078125 C2.5765474 7.47980243 -4.21665597 6.23681089 -9 1 C-7.68 1 -6.36 1 -5 1 C-5 1.66 -5 2.32 -5 3 C-4.01 3 -3.02 3 -2 3 C-1.67 2.34 -1.34 1.68 -1 1 C-0.67 0.67 -0.34 0.34 0 0 Z " fill="#1FAC6B" transform="translate(426,73)"/>
<path d="M0 0 C0.95465783 2.16967689 1.14401212 3.56328793 0.3984375 5.82421875 C-0.35870385 7.5684743 -1.17609198 9.28627131 -2 11 C-1.34 11 -0.68 11 0 11 C0 11.99 0 12.98 0 14 C-1.32 13.67 -2.64 13.34 -4 13 C-4.33 18.94 -4.66 24.88 -5 31 C-5.66 30.67 -6.32 30.34 -7 30 C-7.73308216 19.55357924 -4.93140284 9.19869127 0 0 Z " fill="#23AB6C" transform="translate(46,78)"/>
<path d="M0 0 C0 0.99 0 1.98 0 3 C-1 4 -2 5 -3 6 C-3.71447643 8.10332891 -3.71447643 8.10332891 -4 10 C-4.66 10 -5.32 10 -6 10 C-5.56367091 16.88940671 -4.91610155 23.35751464 -3 30 C-6.39311942 27.06957868 -7.69629129 24.24584596 -8.296875 19.8046875 C-8.68343696 12.95395052 -6.86587871 7.66269557 -3 2 C-2.01 1.34 -1.02 0.68 0 0 Z " fill="#20AC6C" transform="translate(377,75)"/>
<path d="M0 0 C5 5 5 5 6.9375 7.1875 C11.09896972 10.84454915 15.54970429 11.27235808 20.96484375 11.13671875 C24.01475308 10.93183041 26.98503393 10.50249435 30 10 C26.84197249 13.15802751 23.73099765 13.72353966 19.4375 14.0625 C12.30000036 13.87948719 7.00171668 10.87972359 2 6 C0 3 0 3 0 0 Z " fill="#1DAF6D" transform="translate(274,446)"/>
<path d="M0 0 C2.6015625 -0.29296875 2.6015625 -0.29296875 5.625 -0.1875 C7.12933594 -0.14689453 7.12933594 -0.14689453 8.6640625 -0.10546875 C9.43492187 -0.07066406 10.20578125 -0.03585937 11 0 C11 0.66 11 1.32 11 2 C9.39125 1.938125 9.39125 1.938125 7.75 1.875 C4.3138518 1.98953827 2.74232448 2.0702161 0 4 C-2.05925681 7.08888522 -2.2390374 7.70935927 -2.125 11.1875 C-2.08375 12.445625 -2.0425 13.70375 -2 15 C-2.99 14.67 -3.98 14.34 -5 14 C-5 12.35 -5 10.7 -5 9 C-5.66 8.67 -6.32 8.34 -7 8 C-6 5 -6 5 -4.0625 4 C-3.0415625 3.505 -3.0415625 3.505 -2 3 C-1.34 2.01 -0.68 1.02 0 0 Z " fill="#0FB968" transform="translate(191,449)"/>
<path d="M0 0 C0.66 0.33 1.32 0.66 2 1 C1.01 1.33 0.02 1.66 -1 2 C-1.73323796 4.01508358 -1.73323796 4.01508358 -2 6 C-2.99 6 -3.98 6 -5 6 C-5.1546875 7.7634375 -5.1546875 7.7634375 -5.3125 9.5625 C-5.82914958 13.82485903 -7.1508361 17.14087534 -9 21 C-9.33 21 -9.66 21 -10 21 C-9.83746132 13.78919294 -8.64641617 8.6324289 -4 3 C-1.6875 1 -1.6875 1 0 0 Z " fill="#16B269" transform="translate(282,421)"/>
<path d="M0 0 C0.33 0 0.66 0 1 0 C1.268125 1.258125 1.53625 2.51625 1.8125 3.8125 C2.87114704 8.07793626 2.87114704 8.07793626 6 11 C9.10007201 12.20049407 9.10007201 12.20049407 12 13 C6.5625 14.8125 6.5625 14.8125 4 15 C0.67972683 12.53351136 -0.76704916 9.90434433 -2 6 C-2 5.34 -2 4.68 -2 4 C-1.34 4 -0.68 4 0 4 C0 2.68 0 1.36 0 0 Z " fill="#12B76A" transform="translate(379,89)"/>
<path d="M0 0 C0.33 0.66 0.66 1.32 1 2 C0.04370117 4.04711914 0.04370117 4.04711914 -1.45703125 6.53515625 C-1.99263672 7.42654297 -2.52824219 8.31792969 -3.08007812 9.23632812 C-3.65177734 10.16896484 -4.22347656 11.10160156 -4.8125 12.0625 C-5.65264648 13.46725586 -5.65264648 13.46725586 -6.50976562 14.90039062 C-10.73128247 21.86564123 -10.73128247 21.86564123 -13 23 C-12.67 21.35 -12.34 19.7 -12 18 C-11.34 18 -10.68 18 -10 18 C-9.896875 17.278125 -9.79375 16.55625 -9.6875 15.8125 C-8.93206053 12.72206579 -7.84468685 10.58256159 -6 8 C-5.34 8 -4.68 8 -4 8 C-4.33 6.02 -4.66 4.04 -5 2 C-3.35 1.34 -1.7 0.68 0 0 Z " fill="#1FAF6B" transform="translate(431,170)"/>
<path d="M0 0 C0.33 0 0.66 0 1 0 C1.21540485 4.52350194 0.52625797 7.76039453 -1 12 C-1.31996094 13.43585776 -1.63224569 14.87344395 -1.9375 16.3125 C-2.288125 17.529375 -2.63875 18.74625 -3 20 C-3.99 20.33 -4.98 20.66 -6 21 C-5.42381249 15.85404946 -4.25256722 11.44921945 -2.4375 6.5625 C-1.98246094 5.32628906 -1.52742188 4.09007812 -1.05859375 2.81640625 C-0.70925781 1.88699219 -0.35992187 0.95757812 0 0 Z " fill="#EEBD6C" transform="translate(310,375)"/>
<path d="M0 0 C2.97 0.495 2.97 0.495 6 1 C2.81316569 5.33409466 -0.86378916 8.6189962 -5 12 C-5.66 11.67 -6.32 11.34 -7 11 C-6.6875 9.125 -6.6875 9.125 -6 7 C-3 5 -3 5 0 5 C0 3.35 0 1.7 0 0 Z " fill="#14B367" transform="translate(417,266)"/>
<path d="M0 0 C0.33 0 0.66 0 1 0 C1 5.28 1 10.56 1 16 C1.99 16.33 2.98 16.66 4 17 C5.1875 20.5625 5.1875 20.5625 6 24 C2.03480763 20.44499995 -0.73472986 16.99376296 -1.21875 11.53125 C-1.26609931 7.5065588 -1.10996857 3.88489 0 0 Z " fill="#25AE6F" transform="translate(178,451)"/>
<path d="M0 0 C1.125 3.75 1.125 3.75 0 6 C-0.14851844 7.93359586 -0.22130833 9.87342097 -0.25 11.8125 C-0.27578125 12.85019531 -0.3015625 13.88789063 -0.328125 14.95703125 C0.03967237 18.36791404 1.18560919 20.14382985 3 23 C2.67 23.66 2.34 24.32 2 25 C-2.2908617 18.90974468 -3.83721267 14.52096049 -3 7 C-2.19283815 4.50812242 -1.17700577 2.35401154 0 0 Z " fill="#26A86A" transform="translate(390,350)"/>
<path d="M0 0 C3.22364792 4.83547188 3.37913691 10.17753633 2.61328125 15.87890625 C2.13336376 18.27168637 1.60837639 20.63688509 1 23 C0.67 23 0.34 23 0 23 C0 21.02 0 19.04 0 17 C-0.66 16.67 -1.32 16.34 -2 16 C-1.484375 15.21625 -0.96875 14.4325 -0.4375 13.625 C0.036875 12.75875 0.51125 11.8925 1 11 C0.67 10.34 0.34 9.68 0 9 C-0.06950541 7.45976004 -0.08452357 5.91665012 -0.0625 4.375 C-0.05347656 3.55773437 -0.04445313 2.74046875 -0.03515625 1.8984375 C-0.02355469 1.27195313 -0.01195313 0.64546875 0 0 Z " fill="#19AF6A" transform="translate(75,251)"/>
<path d="M0 0 C0.99 0.495 0.99 0.495 2 1 C2 2.65 2 4.3 2 6 C2.66 6 3.32 6 4 6 C4.48198463 7.24891614 4.96045677 8.49918808 5.4375 9.75 C5.70433594 10.44609375 5.97117187 11.1421875 6.24609375 11.859375 C6.96146693 13.89059003 7.51365652 15.9035291 8 18 C8.66 18 9.32 18 10 18 C10.66 19.98 11.32 21.96 12 24 C5.78520056 18.88192987 1.26720284 10.74541986 0.125 2.75 C0.08375 1.8425 0.0425 0.935 0 0 Z " fill="#1EAF68" transform="translate(41,166)"/>
<path d="M0 0 C6.15234375 0.5859375 6.15234375 0.5859375 8 1 C8.33 1.66 8.66 2.32 9 3 C10.918125 3.0309375 10.918125 3.0309375 12.875 3.0625 C13.59429687 3.07410156 14.31359375 3.08570312 15.0546875 3.09765625 C17.08185404 3.12649242 17.08185404 3.12649242 19 2 C21.125 2.9375 21.125 2.9375 23 4 C15.69441596 5.89808632 9.83544403 6.71677269 3 3 C1.25 1.38671875 1.25 1.38671875 0 0 Z " fill="#1DAC6A" transform="translate(376,107)"/>
<path d="M0 0 C7.39325999 1.98355756 12.5632681 5.78857534 17 12 C16.67 12.66 16.34 13.32 16 14 C10.35114504 10.61068702 10.35114504 10.61068702 8.5625 7.5 C6.34061263 3.9449802 3.70879998 2.88938867 0 1 C0 0.67 0 0.34 0 0 Z " fill="#22AB6D" transform="translate(56,233)"/>
<path d="M0 0 C1.32 0 2.64 0 4 0 C3.9278125 0.75925781 3.855625 1.51851562 3.78125 2.30078125 C3.6884375 3.29464844 3.595625 4.28851563 3.5 5.3125 C3.4071875 6.29863281 3.314375 7.28476562 3.21875 8.30078125 C2.95961143 11.04702139 2.95961143 11.04702139 3 14 C2.01 13.67 1.02 13.34 0 13 C-1.125 8.25 -1.125 8.25 0 6 C-0.32550502 4.33178677 -0.65846063 2.66500443 -1 1 C-0.67 0.67 -0.34 0.34 0 0 Z " fill="#0FB568" transform="translate(419,42)"/>
<path d="M0 0 C0.66 0.33 1.32 0.66 2 1 C1.67515625 1.76570312 1.67515625 1.76570312 1.34375 2.546875 C-1.17035499 9.11148247 -1.31865951 15.02489733 -1 22 C-3.77324896 17.84012656 -4.38895799 13.69869619 -3.68359375 8.8046875 C-2.88763755 5.40777208 -1.94397718 2.91596577 0 0 Z " fill="#1EA96B" transform="translate(360,238)"/>
<path d="M0 0 C1.32 0.33 2.64 0.66 4 1 C4.66 5.62 5.32 10.24 6 15 C5.34 15 4.68 15 4 15 C4 13.02 4 11.04 4 9 C3.34 9 2.68 9 2 9 C0 3.375 0 3.375 0 0 Z " fill="#16B26B" transform="translate(427,109)"/>
<path d="M0 0 C0.99 0.33 1.98 0.66 3 1 C3.66 5.95 4.32 10.9 5 16 C4.34 16 3.68 16 3 16 C3 15.34 3 14.68 3 14 C2.01 14 1.02 14 0 14 C0 14.66 0 15.32 0 16 C-0.66 16 -1.32 16 -2 16 C-1 14 0 12 1 10 C1.15898854 8.08499697 1.15898854 8.08499697 1.125 6 C1.12757813 5.29875 1.13015625 4.5975 1.1328125 3.875 C1.11377236 1.90846225 1.11377236 1.90846225 0 0 Z " fill="#19B166" transform="translate(415,355)"/>
<path d="M0 0 C1.4606285 2.64738916 2 3.89448334 2 7 C2.66 7 3.32 7 4 7 C3.48967606 10.77639718 2.79233071 12.44722581 0 15 C-0.19601608 13.25093341 -0.38147403 11.50068154 -0.5625 9.75 C-0.66691406 8.77546875 -0.77132813 7.8009375 -0.87890625 6.796875 C-0.98974468 4.2368648 -0.77738092 2.41851841 0 0 Z " fill="#0EB569" transform="translate(436,149)"/>
<path d="M0 0 C0 3.25811062 -0.5522078 5.10441559 -2 8 C-2.99 8.33 -3.98 8.66 -5 9 C-5 10.65 -5 12.3 -5 14 C-6.32 14 -7.64 14 -9 14 C-7.65070536 10.16336928 -5.92248975 7.34827431 -3.375 4.1875 C-2.42753906 3.00220703 -2.42753906 3.00220703 -1.4609375 1.79296875 C-0.97882812 1.20128906 -0.49671875 0.60960938 0 0 Z " fill="#1BAC6A" transform="translate(56,64)"/>
<path d="M0 0 C1.4550293 0.01353516 1.4550293 0.01353516 2.93945312 0.02734375 C5.31406407 0.05073893 7.68814776 0.08351824 10.0625 0.125 C10.0625 0.455 10.0625 0.785 10.0625 1.125 C9.01191406 1.18558594 7.96132812 1.24617188 6.87890625 1.30859375 C5.46090548 1.39269097 4.04293878 1.47736398 2.625 1.5625 C1.89450439 1.60616699 1.16400879 1.64983398 0.41137695 1.69482422 C-3.49510603 1.93841053 -7.36582397 2.25318679 -11.25 2.75 C-14.9375 3.125 -14.9375 3.125 -17.9375 2.125 C-11.8759737 -0.01040594 -6.38873306 -0.11353866 0 0 Z " fill="#12B369" transform="translate(102.9375,42.875)"/>
<path d="M0 0 C0.33 0 0.66 0 1 0 C1.08967635 4.4838173 0.80134493 8.59260291 0 13 C0 13.99 0 14.98 0 16 C-2 18 -2 18 -5 19 C-4.80664062 18.38253906 -4.61328125 17.76507813 -4.4140625 17.12890625 C-2.67003849 11.45651132 -1.21782106 5.80806965 0 0 Z " fill="#19AE6B" transform="translate(156,277)"/>
<path d="M0 0 C0.33 0.99 0.66 1.98 1 3 C-0.14453125 5.05078125 -0.14453125 5.05078125 -1.8125 7.3125 C-4.26059241 10.78867762 -5.93215782 13.8354155 -7 18 C-7.99 18 -8.98 18 -10 18 C-8.47146065 13.72813475 -6.28490519 10.00673137 -3.875 6.1875 C-3.50246094 5.59001953 -3.12992187 4.99253906 -2.74609375 4.37695312 C-1.8342952 2.91573749 -0.91764024 1.45755415 0 0 Z " fill="#1DAF6E" transform="translate(398,408)"/>
<path d="M0 0 C0.33 0.99 0.66 1.98 1 3 C-0.63761818 4.9823799 -1.8118547 5.93205864 -4.25 6.8125 C-7.90089241 7.06142448 -10.60000611 6.30768996 -14 5 C-14.33 4.01 -14.66 3.02 -15 2 C-14.40832031 2.16757812 -13.81664062 2.33515625 -13.20703125 2.5078125 C-8.13433973 3.84060521 -8.13433973 3.84060521 -3 3.25 C-0.85976155 2.15406478 -0.85976155 2.15406478 0 0 Z " fill="#16B56A" transform="translate(443,254)"/>
<path d="M0 0 C1.50433594 0.01353516 1.50433594 0.01353516 3.0390625 0.02734375 C3.80992187 0.03894531 4.58078125 0.05054687 5.375 0.0625 C5.375 1.0525 5.375 2.0425 5.375 3.0625 C4.48748047 2.88460937 4.48748047 2.88460937 3.58203125 2.703125 C-1.72760194 1.77817545 -1.72760194 1.77817545 -6.5625 3.875 C-7.243125 4.596875 -7.92375 5.31875 -8.625 6.0625 C-9.285 6.7225 -9.945 7.3825 -10.625 8.0625 C-10.625 6.7425 -10.625 5.4225 -10.625 4.0625 C-9.965 4.0625 -9.305 4.0625 -8.625 4.0625 C-8.295 3.0725 -7.965 2.0825 -7.625 1.0625 C-4.98041621 -0.25979189 -2.94738699 -0.03427194 0 0 Z " fill="#19AF6A" transform="translate(390.625,80.9375)"/>
<path d="M0 0 C0.33 0 0.66 0 1 0 C1.33 2.64 1.66 5.28 2 8 C1.360625 8.28875 0.72125 8.5775 0.0625 8.875 C-2.15206079 9.82823451 -2.15206079 9.82823451 -3 12 C-3.66 12 -4.32 12 -5 12 C-3.68938409 7.76570244 -2.05643741 3.92592596 0 0 Z " fill="#16B16A" transform="translate(260,427)"/>
<path d="M0 0 C2.96783129 1.45668783 5.86415313 3.01232086 8.75 4.625 C9.94882813 5.29402344 9.94882813 5.29402344 11.171875 5.9765625 C11.77515625 6.31429687 12.3784375 6.65203125 13 7 C11.66666667 7.33333333 10.33333333 7.66666667 9 8 C7.88625 8.2784375 7.88625 8.2784375 6.75 8.5625 C6.1725 8.706875 5.595 8.85125 5 9 C4.731875 8.21625 4.46375 7.4325 4.1875 6.625 C3.15185568 3.71885077 3.15185568 3.71885077 0 2 C0 1.34 0 0.68 0 0 Z " fill="#18AF69" transform="translate(73,189)"/>
<path d="M0 0 C0.66 0 1.32 0 2 0 C2 0.66 2 1.32 2 2 C2.66 2 3.32 2 4 2 C4 2.66 4 3.32 4 4 C5.65 4.33 7.3 4.66 9 5 C9.12375 5.598125 9.2475 6.19625 9.375 6.8125 C9.95475985 9.26231348 9.95475985 9.26231348 12 12 C8.60140297 10.53033642 6.35036291 8.61962486 3.75 6 C3.04359375 5.29875 2.3371875 4.5975 1.609375 3.875 C0 2 0 2 0 0 Z " fill="#1FAF6C" transform="translate(53,190)"/>
<path d="M0 0 C0.625 1.8125 0.625 1.8125 1 4 C0.01 5.485 0.01 5.485 -1 7 C-1.66 7 -2.32 7 -3 7 C-3 7.66 -3 8.32 -3 9 C-4.98 9.99 -4.98 9.99 -7 11 C-3.57894737 1.78947368 -3.57894737 1.78947368 0 0 Z " fill="#14B169" transform="translate(424,164)"/>
<path d="M0 0 C-2.26504965 1.19984797 -4.53589888 2.38494769 -6.8125 3.5625 C-7.45509766 3.90474609 -8.09769531 4.24699219 -8.75976562 4.59960938 C-10.46926395 5.4765023 -12.23321294 6.24515617 -14 7 C-14.99 6.67 -15.98 6.34 -17 6 C-12.78189277 2.86345872 -5.25016851 -2.62508425 0 0 Z " fill="#16AF69" transform="translate(142,328)"/>
<path d="M0 0 C3 1 3 1 4.1875 3.0625 C4.455625 3.701875 4.72375 4.34125 5 5 C5.66 4.34 6.32 3.68 7 3 C8 6 8 6 8 9 C8.66 9.66 9.32 10.32 10 11 C9.01 11.33 8.02 11.66 7 12 C7 11.34 7 10.68 7 10 C6.34 10 5.68 10 5 10 C3.35 6.7 1.7 3.4 0 0 Z " fill="#15B46A" transform="translate(148,239)"/>
<path d="M0 0 C1.25541557 3.76624671 0.37061958 5.37188934 -1 9 C-1.66 9 -2.32 9 -3 9 C-3 9.66 -3 10.32 -3 11 C-3.66 11 -4.32 11 -5 11 C-5 11.99 -5 12.98 -5 14 C-5.99 14.33 -6.98 14.66 -8 15 C-6.62712658 11.30123909 -4.93644547 8.0485524 -2.875 4.6875 C-2.33617187 3.80449219 -1.79734375 2.92148438 -1.2421875 2.01171875 C-0.83226562 1.34785156 -0.42234375 0.68398437 0 0 Z " fill="#1AAC69" transform="translate(408,188)"/>
<path d="M0 0 C0.99 0.33 1.98 0.66 3 1 C2.23439544 2.2739902 1.46227374 3.54406512 0.6875 4.8125 C0.25824219 5.52019531 -0.17101562 6.22789062 -0.61328125 6.95703125 C-1.92506467 8.88960231 -3.29403845 10.41410612 -5 12 C-5.66 11.67 -6.32 11.34 -7 11 C-6.21654285 9.82780457 -5.42297164 8.66236332 -4.625 7.5 C-4.18414062 6.8503125 -3.74328125 6.200625 -3.2890625 5.53125 C-2.86367187 5.0259375 -2.43828125 4.520625 -2 4 C-1.34 4 -0.68 4 0 4 C0 2.68 0 1.36 0 0 Z " fill="#19AF6B" transform="translate(215,465)"/>
<path d="M0 0 C5.19822672 1.36144033 8.09543873 3.46730171 12 7 C11.67 7.66 11.34 8.32 11 9 C9 7.625 9 7.625 7 6 C7 5.34 7 4.68 7 4 C4.69 4 2.38 4 0 4 C0 2.68 0 1.36 0 0 Z " fill="#19B06A" transform="translate(298,419)"/>
<path d="M0 0 C0.66 1.32 1.32 2.64 2 4 C-2.625 9.875 -2.625 9.875 -6 11 C-6 10.34 -6 9.68 -6 9 C-5.34 9 -4.68 9 -4 9 C-4 8.01 -4 7.02 -4 6 C-3.34 5.67 -2.68 5.34 -2 5 C-2.33 4.01 -2.66 3.02 -3 2 C-2.01 1.34 -1.02 0.68 0 0 Z " fill="#14B26C" transform="translate(428,321)"/>
<path d="M0 0 C1.60332791 -0.08121924 3.20784026 -0.13929134 4.8125 -0.1875 C6.15248047 -0.23970703 6.15248047 -0.23970703 7.51953125 -0.29296875 C10.43860896 0.05180421 11.1642087 0.79357576 13 3 C13.33 3 13.66 3 14 3 C14 4.98 14 6.96 14 9 C11.5 6.6875 11.5 6.6875 9 4 C9 3.01 9 2.02 9 1 C6.03 1 3.06 1 0 1 C0 0.67 0 0.34 0 0 Z " fill="#1BAE69" transform="translate(383,319)"/>
<path d="M0 0 C3.5 1 3.5 1 6 2 C5.01 2.66 4.02 3.32 3 4 C2.34 3.67 1.68 3.34 1 3 C-1.0374763 2.77141886 -3.08040303 2.58975722 -5.125 2.4375 C-6.76855469 2.31181641 -6.76855469 2.31181641 -8.4453125 2.18359375 C-9.28835938 2.12300781 -10.13140625 2.06242187 -11 2 C-7.27367284 -0.48421811 -4.31338065 -0.42240263 0 0 Z " fill="#1EAC6B" transform="translate(393,71)"/>
<path d="M0 0 C0 0.66 0 1.32 0 2 C-0.99 2.33 -1.98 2.66 -3 3 C-3.12375 3.61875 -3.2475 4.2375 -3.375 4.875 C-4 7 -4 7 -6.5625 8.75 C-7.7690625 9.36875 -7.7690625 9.36875 -9 10 C-8.84759391 7.33289346 -8.50635081 5.5494129 -6.66796875 3.5546875 C-2.49375 0 -2.49375 0 0 0 Z " fill="#15B069" transform="translate(427,231)"/>
<path d="M0 0 C0.66 0.33 1.32 0.66 2 1 C-1.3 3.64 -4.6 6.28 -8 9 C-8.33 8.01 -8.66 7.02 -9 6 C-8.34 6 -7.68 6 -7 6 C-7 5.34 -7 4.68 -7 4 C-6.34 4 -5.68 4 -5 4 C-5 3.34 -5 2.68 -5 2 C-2.625 0.9375 -2.625 0.9375 0 0 Z " fill="#17AE6B" transform="translate(78,65)"/>
<path d="M0 0 C-1.17255709 3.33727786 -2.18868404 5.77437487 -5 8 C-5.66 8 -6.32 8 -7 8 C-6.65930765 4.84859577 -6.41923159 3.39218439 -4.0625 1.1875 C-2 0 -2 0 0 0 Z " fill="#17B368" transform="translate(311,448)"/>
<path d="M0 0 C-2.61941217 1.74627478 -4.03824877 2.38722388 -7 3 C-6.67 3.99 -6.34 4.98 -6 6 C-7.65 6.33 -9.3 6.66 -11 7 C-10.67 6.01 -10.34 5.02 -10 4 C-9.34 4 -8.68 4 -8 4 C-7.87625 3.360625 -7.7525 2.72125 -7.625 2.0625 C-7.41875 1.381875 -7.2125 0.70125 -7 0 C-4.3333581 -1.33332095 -2.83319697 -0.67102033 0 0 Z " fill="#02BF66" transform="translate(192,444)"/>
<path d="M0 0 C0.66 0.33 1.32 0.66 2 1 C-1.34003602 5.32239956 -4.32751069 8.17477391 -9 11 C-9.66 10.67 -10.32 10.34 -11 10 C-5.555 5.05 -5.555 5.05 0 0 Z " fill="#1EAE6B" transform="translate(411,262)"/>
<path d="M0 0 C2.64 0 5.28 0 8 0 C7.2884375 1.051875 7.2884375 1.051875 6.5625 2.125 C4.91260143 5.16081337 4.39631536 7.59168786 4 11 C3.67 11 3.34 11 3 11 C2.875 4.25 2.875 4.25 4 2 C2.68 2.33 1.36 2.66 0 3 C0 2.01 0 1.02 0 0 Z " fill="#15B366" transform="translate(422,241)"/>
<path d="M0 0 C2.64 0.33 5.28 0.66 8 1 C5.57418129 3.42581871 3.92566131 3.96355664 0.51953125 4.09765625 C-0.37378906 4.08605469 -1.26710937 4.07445312 -2.1875 4.0625 C-3.53908203 4.04896484 -3.53908203 4.04896484 -4.91796875 4.03515625 C-5.60503906 4.02355469 -6.29210937 4.01195312 -7 4 C-7 3.67 -7 3.34 -7 3 C-3.535 2.505 -3.535 2.505 0 2 C0 1.34 0 0.68 0 0 Z " fill="#18B36C" transform="translate(200,476)"/>
<path d="M0 0 C0.33 0 0.66 0 1 0 C1 5.61 1 11.22 1 17 C0.34 17 -0.32 17 -1 17 C-1 17.66 -1 18.32 -1 19 C-1.66 19 -2.32 19 -3 19 C-2.68289063 18.32582031 -2.36578125 17.65164063 -2.0390625 16.95703125 C-0.81297609 13.46775527 -0.58180931 10.37559942 -0.375 6.6875 C-0.30023438 5.43324219 -0.22546875 4.17898438 -0.1484375 2.88671875 C-0.09945313 1.93410156 -0.05046875 0.98148437 0 0 Z " fill="#1BAA6D" transform="translate(264,408)"/>
<path d="M0 0 C1.32 0 2.64 0 4 0 C5.37432457 3.81756824 4.67975039 7.07255329 4 11 C1.54176828 7.31265242 0.98757384 4.30300029 0 0 Z " fill="#F4BB6C" transform="translate(343,383)"/>
<path d="M0 0 C0.95465783 2.16967689 1.14401212 3.56328793 0.3984375 5.82421875 C-0.35870385 7.5684743 -1.17609198 9.28627131 -2 11 C-1.34 11 -0.68 11 0 11 C0 11.99 0 12.98 0 14 C-0.99 13.67 -1.98 13.34 -3 13 C-3.31563182 7.73946963 -2.66590937 4.55426184 0 0 Z " fill="#17AE6A" transform="translate(46,78)"/>
<path d="M0 0 C0.66 0.33 1.32 0.66 2 1 C1.67 2.65 1.34 4.3 1 6 C0.67 5.34 0.34 4.68 0 4 C-0.9075 4.61875 -1.815 5.2375 -2.75 5.875 C-5.14948817 7.44389611 -7.40961612 8.80443821 -10 10 C-6.92118304 6.12948725 -3.99926986 2.97088618 0 0 Z " fill="#20AC6B" transform="translate(67,54)"/>
<path d="M0 0 C0.66 0 1.32 0 2 0 C3.7265625 2.1171875 3.7265625 2.1171875 5.625 4.875 C6.25664062 5.77992187 6.88828125 6.68484375 7.5390625 7.6171875 C9 10 9 10 9 12 C7.68 11.34 6.36 10.68 5 10 C5.33 9.34 5.66 8.68 6 8 C5.34 8 4.68 8 4 8 C2.21694476 5.36107824 1.00940379 3.02821137 0 0 Z " fill="#13B06D" transform="translate(456,27)"/>
<path d="M0 0 C1.51400391 0.01740234 1.51400391 0.01740234 3.05859375 0.03515625 C4.07050781 0.04417969 5.08242187 0.05320312 6.125 0.0625 C7.29869141 0.07990234 7.29869141 0.07990234 8.49609375 0.09765625 C8.49609375 0.75765625 8.49609375 1.41765625 8.49609375 2.09765625 C6.88734375 2.03578125 6.88734375 2.03578125 5.24609375 1.97265625 C0.62453152 2.12670832 -1.28828972 2.88203972 -4.50390625 6.09765625 C-3.43349052 0.13391149 -3.43349052 0.13391149 0 0 Z " fill="#1EB16D" transform="translate(193.50390625,448.90234375)"/>
<path d="M0 0 C0.33 0 0.66 0 1 0 C1 3.96 1 7.92 1 12 C1.66 12 2.32 12 3 12 C3 14.31 3 16.62 3 19 C0.25902195 16.25902195 0.01426141 14.49002207 -0.09765625 10.64453125 C-0.08605469 9.37996094 -0.07445312 8.11539062 -0.0625 6.8125 C-0.05347656 5.54019531 -0.04445313 4.26789063 -0.03515625 2.95703125 C-0.02355469 1.98121094 -0.01195312 1.00539063 0 0 Z " fill="#22AA6A" transform="translate(16,256)"/>
<path d="M0 0 C3.2626876 3.08632611 6.02235218 5.93483504 8 10 C7.67 10.66 7.34 11.32 7 12 C3.58733115 9.72488743 3.45829368 8.6457342 2 5 C1.01 4.34 0.02 3.68 -1 3 C-0.67 2.01 -0.34 1.02 0 0 Z " fill="#1FA969" transform="translate(157,224)"/>
<path d="M0 0 C3.24208567 0.35049575 4.61527704 0.56221181 6.8125 3.0625 C7.204375 3.701875 7.59625 4.34125 8 5 C6.02 5 4.04 5 2 5 C1.34 3.35 0.68 1.7 0 0 Z " fill="#16B269" transform="translate(418,295)"/>
<path d="M0 0 C0.99 0.33 1.98 0.66 3 1 C1.68 4.96 0.36 8.92 -1 13 C-1.96697501 9.13209997 -1.979595 7.91837998 -1.0625 4.25 C-0.86785156 3.45078125 -0.67320312 2.6515625 -0.47265625 1.828125 C-0.31667969 1.22484375 -0.16070312 0.6215625 0 0 Z " fill="#F2BB6B" transform="translate(318,382)"/>
<path d="M0 0 C0.66 0.33 1.32 0.66 2 1 C3.09506492 4.28519475 3.09960608 6.73663415 3.0625 10.1875 C3.05347656 11.27417969 3.04445313 12.36085938 3.03515625 13.48046875 C3.02355469 14.31191406 3.01195312 15.14335937 3 16 C2.67 16 2.34 16 2 16 C2 12.37 2 8.74 2 5 C1.01 5.33 0.02 5.66 -1 6 C-1 3 -1 3 0 0 Z " fill="#17B56C" transform="translate(429,304)"/>
<path d="M0 0 C0.33 0.99 0.66 1.98 1 3 C-1.64 4.98 -4.28 6.96 -7 9 C-7.66 8.67 -8.32 8.34 -9 8 C-6.03 5.36 -3.06 2.72 0 0 Z " fill="#22AC6A" transform="translate(399,273)"/>
<path d="M0 0 C0.99 1.32 1.98 2.64 3 4 C-0.97662354 5.32554118 -3.09887911 4.34765994 -7 3 C-7.66 2.34 -8.32 1.68 -9 1 C-7.68 1 -6.36 1 -5 1 C-5 1.66 -5 2.32 -5 3 C-4.01 3 -3.02 3 -2 3 C-1.67 2.34 -1.34 1.68 -1 1 C-0.67 0.67 -0.34 0.34 0 0 Z " fill="#0FB26A" transform="translate(426,73)"/>
<path d="M0 0 C0.33 0.66 0.66 1.32 1 2 C-0.98 4.31 -2.96 6.62 -5 9 C-6 5 -6 5 -5 3 C-3.68 3 -2.36 3 -1 3 C-0.67 2.01 -0.34 1.02 0 0 Z " fill="#19AD6C" transform="translate(462,64)"/>
<path d="M0 0 C0.82638376 2.89234315 1 4.88742431 1 8 C-0.65 8.66 -2.3 9.32 -4 10 C-2.8905928 6.51329166 -1.73662334 3.22515763 0 0 Z " fill="#18AF6B" transform="translate(410,32)"/>
<path d="M0 0 C0.99 0.66 1.98 1.32 3 2 C5.11280345 2.63292383 5.11280345 2.63292383 7 3 C-0.42857143 5.42857143 -0.42857143 5.42857143 -4 4 C-2.68 2.68 -1.36 1.36 0 0 Z " fill="#14B36B" transform="translate(345,449)"/>
<path d="M0 0 C0.99 0.33 1.98 0.66 3 1 C2.01 2.32 1.02 3.64 0 5 C0.33 5.66 0.66 6.32 1 7 C0.01 7 -0.98 7 -2 7 C-2.33 7.66 -2.66 8.32 -3 9 C-2.5020163 5.26512223 -2.12508244 3.18762365 0 0 Z " fill="#17B462" transform="translate(182,445)"/>
<path d="M0 0 C0.33 0 0.66 0 1 0 C1 1.98 1 3.96 1 6 C0.34 6 -0.32 6 -1 6 C-1 6.66 -1 7.32 -1 8 C-1.66 8 -2.32 8 -3 8 C-3.33 8.99 -3.66 9.98 -4 11 C-4.33 10.34 -4.66 9.68 -5 9 C-4.00390625 6.8359375 -4.00390625 6.8359375 -2.5625 4.375 C-2.08941406 3.55773437 -1.61632812 2.74046875 -1.12890625 1.8984375 C-0.75636719 1.27195312 -0.38382813 0.64546875 0 0 Z " fill="#19AF6D" transform="translate(254,439)"/>
<path d="M0 0 C1.32 0.33 2.64 0.66 4 1 C2.90554162 1.86657116 1.79902219 2.71792724 0.6875 3.5625 C0.07261719 4.03816406 -0.54226563 4.51382812 -1.17578125 5.00390625 C-1.77777344 5.33261719 -2.37976563 5.66132813 -3 6 C-3.99 5.67 -4.98 5.34 -6 5 C-5.38125 4.9175 -4.7625 4.835 -4.125 4.75 C-1.81562433 4.18741541 -1.81562433 4.18741541 -0.75 1.9375 C-0.5025 1.298125 -0.255 0.65875 0 0 Z " fill="#1FAC69" transform="translate(419,375)"/>
<path d="M0 0 C0.66 0 1.32 0 2 0 C1.35494404 3.48330216 0.01782732 6.09432866 -2 9 C-2.66 9 -3.32 9 -4 9 C-4 8.01 -4 7.02 -4 6 C-3.34 6 -2.68 6 -2 6 C-1.7834375 5.071875 -1.7834375 5.071875 -1.5625 4.125 C-1 2 -1 2 0 0 Z " fill="#17AF6D" transform="translate(453,255)"/>
<path d="M0 0 C0.99 0.33 1.98 0.66 3 1 C3 3.64 3 6.28 3 9 C2.01 9.33 1.02 9.66 0 10 C0 6.7 0 3.4 0 0 Z " fill="#1AAF68" transform="translate(444,244)"/>
<path d="M0 0 C0.33 0.66 0.66 1.32 1 2 C-0.4726862 5.27263601 -1.42695432 6.72014048 -4.6875 8.3125 C-5.450625 8.539375 -6.21375 8.76625 -7 9 C-5.44499019 5.18315774 -2.96404505 2.80804268 0 0 Z " fill="#23AD6B" transform="translate(28,237)"/>
<path d="M0 0 C0 3.37027852 -0.49824008 4.06702696 -2.4375 6.6875 C-2.88996094 7.31011719 -3.34242187 7.93273437 -3.80859375 8.57421875 C-4.20175781 9.04472656 -4.59492187 9.51523438 -5 10 C-5.33 10 -5.66 10 -6 10 C-6 8.02 -6 6.04 -6 4 C-5.01 4.33 -4.02 4.66 -3 5 C-2.5359375 4.0409375 -2.5359375 4.0409375 -2.0625 3.0625 C-1 1 -1 1 0 0 Z " fill="#19AF67" transform="translate(66,76)"/>
<path d="M0 0 C2.12508244 3.18762365 2.5020163 5.26512223 3 9 C2.01 9.33 1.02 9.66 0 10 C0 6.7 0 3.4 0 0 Z " fill="#F3BA6E" transform="translate(354,378)"/>
<path d="M0 0 C0.66 0 1.32 0 2 0 C2.66 1.65 3.32 3.3 4 5 C1.50935112 5.68707555 -0.37886292 6 -3 6 C-2.505 5.38125 -2.01 4.7625 -1.5 4.125 C0.19222773 2.16119096 0.19222773 2.16119096 0 0 Z " fill="#12B46A" transform="translate(422,347)"/>
<path d="M0 0 C2.95183101 2.95183101 3.08663988 5.95511947 4 10 C2.68 9.34 1.36 8.68 0 8 C0 5.36 0 2.72 0 0 Z " fill="#F1BB70" transform="translate(341,341)"/>
<path d="M0 0 C1.125 1.6875 1.125 1.6875 2 4 C1.125 6.75 1.125 6.75 0 9 C-0.99 8.67 -1.98 8.34 -3 8 C-1.125 2.25 -1.125 2.25 0 0 Z " fill="#15B56A" transform="translate(20,246)"/>
<path d="M0 0 C0.66 0 1.32 0 2 0 C0.6302836 3.99500618 -1.25722422 6.80009492 -4 10 C-4 8.68 -4 7.36 -4 6 C-3.34 6 -2.68 6 -2 6 C-1.855625 5.195625 -1.71125 4.39125 -1.5625 3.5625 C-1 1 -1 1 0 0 Z " fill="#1AAD69" transform="translate(401,218)"/>
<path d="M0 0 C0.33 0.66 0.66 1.32 1 2 C0.00390625 3.9453125 0.00390625 3.9453125 -1.4375 6.125 C-1.91058594 6.84945313 -2.38367188 7.57390625 -2.87109375 8.3203125 C-3.24363281 8.87460937 -3.61617188 9.42890625 -4 10 C-5 7 -5 7 -4.0625 4.9375 C-3.711875 4.298125 -3.36125 3.65875 -3 3 C-3 2.34 -3 1.68 -3 1 C-2.01 0.67 -1.02 0.34 0 0 Z " fill="#1EAE69" transform="translate(404,418)"/>
<path d="M0 0 C2.31 1.98 4.62 3.96 7 6 C3.79604584 6 1.90600261 5.25664978 -1 4 C-0.67 2.68 -0.34 1.36 0 0 Z " fill="#15AF69" transform="translate(66,182)"/>
<path d="M0 0 C-4.5 3 -4.5 3 -9 6 C-8.1875 3.0625 -8.1875 3.0625 -7 0 C-3.86650268 -1.04449911 -3.01031744 -0.93423645 0 0 Z " fill="#1EAE6D" transform="translate(432,36)"/>
<path d="M0 0 C0.66 0.33 1.32 0.66 2 1 C1.67 2.65 1.34 4.3 1 6 C0.01 6 -0.98 6 -2 6 C-2.33 6.66 -2.66 7.32 -3 8 C-3 6.68 -3 5.36 -3 4 C-2.34 4 -1.68 4 -1 4 C-0.67 2.68 -0.34 1.36 0 0 Z " fill="#10B768" transform="translate(398,424)"/>
<path d="M0 0 C0.66 0 1.32 0 2 0 C0.83857315 4.35535069 -0.07699505 6.64619703 -4 9 C-2.80100302 5.9168649 -1.52299523 2.93720508 0 0 Z " fill="#1AAE6A" transform="translate(73,274)"/>
<path d="M0 0 C1.65 1.65 3.3 3.3 5 5 C4.67 5.66 4.34 6.32 4 7 C2.02 5.68 0.04 4.36 -2 3 C-1 1 -1 1 0 0 Z " fill="#12B064" transform="translate(68,240)"/>
<path d="M0 0 C2.31 0.66 4.62 1.32 7 2 C7.33 3.65 7.66 5.3 8 7 C6.66382648 6.02471263 5.3311249 5.04466681 4 4.0625 C3.2575 3.51722656 2.515 2.97195312 1.75 2.41015625 C1.1725 1.94480469 0.595 1.47945312 0 1 C0 0.67 0 0.34 0 0 Z " fill="#19B06A" transform="translate(135,225)"/>
<path d="M0 0 C1.65 1.65 3.3 3.3 5 5 C4.34 6.32 3.68 7.64 3 9 C1.35173889 6.03312999 0.55728913 3.34373475 0 0 Z " fill="#15B66C" transform="translate(449,42)"/>
<path d="M0 0 C-0.6875 1.9375 -0.6875 1.9375 -2 4 C-4.625 4.75 -4.625 4.75 -7 5 C-2.25 0 -2.25 0 0 0 Z " fill="#1DAE68" transform="translate(423,22)"/>
<path d="M0 0 C1.670625 0.061875 1.670625 0.061875 3.375 0.125 C3.375 0.785 3.375 1.445 3.375 2.125 C0.04965243 3.23344919 -2.24682575 2.96954356 -5.625 2.125 C-3.625 0.125 -3.625 0.125 0 0 Z " fill="#1DAF6A" transform="translate(114.625,320.875)"/>
<path d="M0 0 C0.33 0.66 0.66 1.32 1 2 C0.22265625 3.7265625 0.22265625 3.7265625 -0.9375 5.625 C-1.618125 6.73875 -2.29875 7.8525 -3 9 C-4.36207958 6.27584084 -3.86166193 4.87220643 -3 2 C-2.01 1.34 -1.02 0.68 0 0 Z " fill="#19AD69" transform="translate(166,298)"/>
<path d="M0 0 C1.0625 1.8125 1.0625 1.8125 2 4 C1.67 4.99 1.34 5.98 1 7 C-0.32 6.67 -1.64 6.34 -3 6 C-2 4 -1 2 0 0 Z " fill="#16B068" transform="translate(149,297)"/>
<path d="M0 0 C0.99 1.32 1.98 2.64 3 4 C-1.26826873 4 -1.93882432 3.62386487 -5 1 C-3.35 0.67 -1.7 0.34 0 0 Z " fill="#17B46B" transform="translate(133,220)"/>
<path d="M0 0 C0.33 0 0.66 0 1 0 C1.33 2.97 1.66 5.94 2 9 C1.01 8.67 0.02 8.34 -1 8 C-1.625 5.6875 -1.625 5.6875 -2 3 C-1.34 2.01 -0.68 1.02 0 0 Z " fill="#0BBF6D" transform="translate(420,47)"/>
<path d="" fill="#FFFFFF" transform="translate(0,0)"/>
<path d="" fill="#FFFFFF" transform="translate(0,0)"/>
<path d="" fill="#FFFFFF" transform="translate(0,0)"/>
<path d="" fill="#FFFFFF" transform="translate(0,0)"/>
<path d="" fill="#FFFFFF" transform="translate(0,0)"/>
<path d="" fill="#FFFFFF" transform="translate(0,0)"/>
<path d="" fill="#FFFFFF" transform="translate(0,0)"/>
<path d="" fill="#FFFFFF" transform="translate(0,0)"/>
<path d="" fill="#FFFFFF" transform="translate(0,0)"/>
<path d="" fill="#FFFFFF" transform="translate(0,0)"/>
<path d="" fill="#FFFFFF" transform="translate(0,0)"/>
<path d="" fill="#FFFFFF" transform="translate(0,0)"/>
<path d="" fill="#FFFFFF" transform="translate(0,0)"/>
<path d="" fill="#FFFFFF" transform="translate(0,0)"/>
<path d="" fill="#FFFFFF" transform="translate(0,0)"/>
<path d="" fill="#FFFFFF" transform="translate(0,0)"/>
<path d="" fill="#FFFFFF" transform="translate(0,0)"/>
<path d="" fill="#FFFFFF" transform="translate(0,0)"/>
<path d="" fill="#FFFFFF" transform="translate(0,0)"/>
<path d="" fill="#FFFFFF" transform="translate(0,0)"/>
<path d="" fill="#FFFFFF" transform="translate(0,0)"/>
<path d="" fill="#FFFFFF" transform="translate(0,0)"/>
<path d="" fill="#FFFFFF" transform="translate(0,0)"/>
<path d="" fill="#FFFFFF" transform="translate(0,0)"/>
<path d="" fill="#FFFFFF" transform="translate(0,0)"/>
<path d="" fill="#FFFFFF" transform="translate(0,0)"/>
<path d="" fill="#FFFFFF" transform="translate(0,0)"/>
<path d="" fill="#FFFFFF" transform="translate(0,0)"/>
<path d="" fill="#FFFFFF" transform="translate(0,0)"/>
<path d="" fill="#FFFFFF" transform="translate(0,0)"/>
<path d="" fill="#FFFFFF" transform="translate(0,0)"/>
<path d="" fill="#FFFFFF" transform="translate(0,0)"/>
<path d="" fill="#FFFFFF" transform="translate(0,0)"/>
<path d="" fill="#FFFFFF" transform="translate(0,0)"/>
<path d="" fill="#FFFFFF" transform="translate(0,0)"/>
<path d="" fill="#FFFFFF" transform="translate(0,0)"/>
<path d="" fill="#FFFFFF" transform="translate(0,0)"/>
<path d="" fill="#FFFFFF" transform="translate(0,0)"/>
<path d="" fill="#FFFFFF" transform="translate(0,0)"/>
<path d="" fill="#FFFFFF" transform="translate(0,0)"/>
<path d="" fill="#FFFFFF" transform="translate(0,0)"/>
<path d="" fill="#FFFFFF" transform="translate(0,0)"/>
<path d="" fill="#FFFFFF" transform="translate(0,0)"/>
<path d="" fill="#FFFFFF" transform="translate(0,0)"/>
<path d="" fill="#FFFFFF" transform="translate(0,0)"/>
<path d="" fill="#FFFFFF" transform="translate(0,0)"/>
<path d="" fill="#FFFFFF" transform="translate(0,0)"/>
<path d="" fill="#FFFFFF" transform="translate(0,0)"/>
<path d="" fill="#FFFFFF" transform="translate(0,0)"/>
<path d="" fill="#FFFFFF" transform="translate(0,0)"/>
<path d="" fill="#FFFFFF" transform="translate(0,0)"/>
<path d="" fill="#FFFFFF" transform="translate(0,0)"/>
<path d="" fill="#FFFFFF" transform="translate(0,0)"/>
<path d="" fill="#FFFFFF" transform="translate(0,0)"/>
<path d="" fill="#FFFFFF" transform="translate(0,0)"/>
<path d="" fill="#FFFFFF" transform="translate(0,0)"/>
<path d="" fill="#FFFFFF" transform="translate(0,0)"/>
<path d="" fill="#FFFFFF" transform="translate(0,0)"/>
</svg>
